<?xml version="1.0" standalone="no"?>
<!DOCTYPE svg PUBLIC "-//W3C//DTD SVG 1.1//EN" "http://www.w3.org/Graphics/SVG/1.1/DTD/svg11.dtd">
<svg xmlns="http://www.w3.org/2000/svg"><metadata>This SVG WebFont was generated by YouWorkForThem.
Copyright (c) 2007 by Stefan Kjartansson &amp; YouWorkForThem. All rights reserved.</metadata><defs><font horiz-adv-x="1288" id="ywftsvg"><font-face ascent="1638" bbox="0 -764 3066 1985" cap-height="1466" descent="-410" font-family="" font-stretch="normal" font-weight="400" panose-1="2 0 6 5 4 0 0 2 0 4" underline-position="0" underline-thickness="0" unicode-range="U+0020-FB04" units-per-em="2048" x-height="1233"/><missing-glyph horiz-adv-x="450"/><glyph d="M1661 0h-1018v469h-43l-45 -469h-532v469h247l90 528h-337v469h1638v-690h-221v221h-260v-43h217v-442h-217v-43h260v264h221v-733zM643 733v381l-63 -381h63z" glyph-name="AE" horiz-adv-x="1683" unicode="AE"/><glyph d="M1808 616q0 -57 -8 -104h-715q0 -37 26 -62.5t70 -25.5t68 45h543q-51 -211 -223 -349t-393 -138q-311 0 -453 145q-55 -66 -153.5 -105.5t-228.5 -39.5t-230.5 100t-100.5 230t50.5 207t130 108.5t160.5 47t159 26t102 25.5t27 36q0 49 -43 49q-18 0 -31.5 -12.5 t-13.5 -30.5v-16h-490v6q0 203 152 347t358 144q158 0 285 -86q152 86 320 86q262 0 447 -185.5t185 -447.5zM1266 745q0 37 -27 63t-63.5 26t-63.5 -26t-27 -63h181zM639 465v57q-86 -16 -86 -61q0 -16 13.5 -29.5t30.5 -13.5t29.5 13.5t12.5 33.5z" glyph-name="ae" horiz-adv-x="1818" unicode="ae"/><glyph d="M1964 733v-733q-650 0 -1055 -12l-137 -4q-309 -4 -529 217t-220 532t220 532.5t529 217.5q465 -16 1192 -17v-690h-219v221h-260v-43h215v-442h-215v-43h260v264h219zM971 733q0 82 -57.5 140.5t-140.5 58.5t-140.5 -58.5t-57.5 -140.5t57.5 -140t140.5 -58t140.5 58 t57.5 140z" glyph-name="OE" horiz-adv-x="1986" unicode="OE"/><glyph d="M1999 616q0 -35 -8 -104h-715q0 -37 25.5 -62.5t69.5 -25.5t69 45h540q-49 -211 -221 -349t-380 -138t-373 112q-166 -113 -363 -112q-262 0 -447.5 186t-185.5 448.5t185.5 447.5t447.5 185q199 0 361 -112q162 113 362 112q262 0 447.5 -185.5t185.5 -447.5zM1456 745 q0 37 -26.5 63t-63.5 26t-63.5 -26t-26.5 -63h180zM776 615q0 54 -39 93.5t-93 39.5t-93 -39t-39 -93t39 -93.5t93 -39.5t93 39t39 93z" glyph-name="oe" horiz-adv-x="2009" unicode="oe"/><glyph d="M733 1233h172v-469h-172v-295h172v-469h-409q-141 0 -240.5 100.5t-99.5 241.5v422h-133v469h133v135l577 98v-233zM2216 0h-561v715q0 29 -19.5 48t-46 19t-46 -19.5t-19.5 -47.5v-246h88v-469h-666v1466h578v-354q117 137 290 137t287.5 -115.5t114.5 -279.5v-854z" glyph-name="uniF800" horiz-adv-x="2238" unicode="th"/><glyph d="M2036 999h-221v-45h221v-442h-221v-45l221 2v-469h-932v469h133v530q0 195 137 331t332 136h330v-467zM1194 764h-133l-70 -584q-23 -178 -154.5 -295.5t-310.5 -117.5h-503v469h286l-153 528h-133v469h675l45 -617l43 617h408v-469z" glyph-name="uniF801" horiz-adv-x="2058" unicode="yf"/><glyph d="M1989 0h-410q-141 0 -241.5 100.5t-100.5 241.5v1026l578 98v-233h174v-469h-174v-295h174v-469zM1194 764h-133l-70 -584q-23 -178 -154.5 -295.5t-310.5 -117.5h-503v469h286l-153 528h-133v469h675l45 -617l43 617h408v-469z" glyph-name="uniF802" horiz-adv-x="2011" unicode="yt"/><glyph d="M1700 0h-799v469h88v530q0 195 137.5 331t331.5 136h242v-469h-133v-43h133v-442h-133v-43h133v-469zM952 997h-219v-43h219v-442h-219v-43h131v-469h-841v469h133v43h-133v442h133v45q0 193 137 330t330 137h329v-469z" glyph-name="uniFB00" horiz-adv-x="1722" unicode="ff"/><glyph d="M1620 997h-578v469h578v-469zM1751 0h-842v467h133v487h578v-487h131v-467zM997 512h-264v-43h131v-469h-841v469h133v43h-133v440h133v45q0 195 137 332t330 137h374v-469h-264v-45h264v-440z" glyph-name="uniFB01" horiz-adv-x="1773" unicode="fi"/><glyph d="M1751 0h-842v469h133v528h-133v469h711v-997h131v-469zM997 512h-264v-43h131v-469h-841v469h133v43h-133v440h133v45q0 195 137 332t330 137h241v-469h-131v-45h264v-440z" glyph-name="uniFB02" horiz-adv-x="1773" unicode="fl"/><glyph d="M2454 997h-578v469h578v-469zM2585 0h-842v469h133v485h578v-485h131v-469zM1831 512h-264v-43h133v-469h-799v469h88v530q0 195 137.5 331t331.5 136h373v-469h-264v-43h264v-442zM952 997h-219v-43h219v-442h-219v-43h131v-469h-841v469h133v43h-133v442h133v45 q0 193 137 330t330 137h329v-469z" glyph-name="uniFB03" horiz-adv-x="2607" unicode="ffi"/><glyph d="M2585 0h-842v469h133v528h-133v469h711v-997h131v-469zM1831 512h-264v-43h133v-469h-799v469h88v530q0 195 137.5 331t331.5 136h242v-469h-133v-43h264v-442zM952 997h-219v-43h219v-442h-219v-43h131v-469h-841v469h133v43h-133v442h133v45q0 193 137 330t330 137h329 v-469z" glyph-name="uniFB04" horiz-adv-x="2607" unicode="ffl"/><glyph d="M1483 512h-398v485h-45v-528h224v-469h-1022v469h221v528h-43v-485h-397v954h1460v-954zM3066 0h-868v469h92v43h-228v-43h90v-469h-847v469h223v997h624v-469h-90v-43h228v43h-92v469h868v-469h-244v-528h244v-469z" glyph-name="T_H.liga" horiz-adv-x="3088" unicode="TH"/><glyph d="M1483 512h-398v485h-45v-528h224v-469h-1022v469h221v528h-43v-485h-397v954h1460v-954zM2793 0h-561v715q0 29 -19.5 48t-46 19t-46 -19.5t-19.5 -47.5v-246h88v-469h-882v469h217v997h577v-354q117 137 290 137t287.5 -115.5t114.5 -279.5v-854z" glyph-name="T_h.liga" horiz-adv-x="2816" unicode="Th"/><glyph glyph-name=".notdef" horiz-adv-x="450"/><glyph glyph-name="glyph1" horiz-adv-x="0"/><glyph glyph-name="glyph2" horiz-adv-x="681"/><glyph glyph-name="space" horiz-adv-x="450" unicode=" "/><glyph d="M600 512h-577v954h577v-954zM23 469h577v-469h-577v469z" glyph-name="exclam" horiz-adv-x="622" unicode="!"/><glyph d="M1221 764h-578v702h578v-702zM600 764h-577v702h577v-702z" glyph-name="quotedbl" horiz-adv-x="1243" unicode="&quot;"/><glyph d="M25 387v324h237l8 41h-245v323h303l71 391h467l-71 -391h45l71 391h467l-71 -391h182v-323h-240l-8 -41h248v-324h-305l-70 -387h-467l70 387h-45l-70 -387h-467l70 387h-180zM729 711h45l8 41h-45z" glyph-name="numbersign" horiz-adv-x="1513" unicode="#"/><glyph d="M1202 403q0 -167 -126 -293t-290 -126t-251 98v-313h-43v231h-469v588h495v-41q0 -18 13.5 -32.5t32.5 -14.5t32.5 14t13.5 33q0 39 -37 47l-225 43q-156 29 -251 145.5t-95 283.5t126 293t289 126t251 -99v302h45v-222h436v-585h-440v43q-2 16 -16.5 29.5t-33 13.5 t-33 -14.5t-14.5 -32.5q0 -41 39 -48l201 -38q158 -31 254 -147.5t96 -283.5z" glyph-name="dollar" horiz-adv-x="1204" unicode="$"/><glyph d="M573 963q0 -115 -78.5 -172.5t-196.5 -57.5t-196.5 58.5t-78.5 171.5v290q0 115 82.5 172.5t197.5 57.5t192.5 -61.5t77.5 -168.5v-290zM1124 1466l-1048 -1466h-53l1046 1466h55zM1124 213q0 -115 -78.5 -173t-196.5 -58t-197 59t-79 172v289q0 117 82 174t198 57 t193.5 -62.5t77.5 -168.5v-289zM319 942v332q0 23 -22 22q-20 0 -21 -22v-332q0 -23 21 -22q22 -1 22 22zM870 190v334q0 23 -21 23t-22 -23v-334q-1 -20 21 -20t22 20z" glyph-name="percent" horiz-adv-x="1146" unicode="%"/><glyph d="M1587 0h-368l-127 104q-290 -122 -522 -122t-389.5 121.5t-157.5 351.5q0 162 101 289.5t257 195.5q-20 68 -21 143q0 147 114 265t290 118h285v-469h-209l252 -254v211h495v-442h-264l43 -43h221v-469zM555 522q0 -37 30.5 -68.5t76.5 -29.5q6 0 100 8l-180 180 q-27 -53 -27 -90z" glyph-name="ampersand" horiz-adv-x="1609" unicode="&amp;"/><glyph d="M492 758h-469v708h469v-708z" glyph-name="quotesingle" horiz-adv-x="514" unicode="'"/><glyph d="M10 733q0 303 214 518t519 215v-469q-111 0 -187.5 -77.5t-76.5 -187.5t77 -186.5t187 -76.5v-469q-305 0 -519 215t-214 518z" glyph-name="parenleft" horiz-adv-x="765" unicode="("/><glyph d="M756 733q0 -303 -214 -518t-519 -215v469q109 0 186.5 76.5t77.5 186.5t-78 187.5t-186 77.5v469q305 0 519 -215t214 -518z" glyph-name="parenright" horiz-adv-x="765" unicode=")"/><glyph d="M141 1018l-131 96l66 199h162l49 153h211l49 -153h164l65 -199l-133 -96l51 -158l-168 -123l-133 99l-135 -97l-168 123z" glyph-name="asterisk" horiz-adv-x="786" unicode="*"/><glyph d="M23 954h442v441h440v-441h443v-442h-443v-442h-440v442h-442v442z" glyph-name="plus" horiz-adv-x="1370" unicode="+"/><glyph d="M23 0v467h469v-467l-205 -233h-60l205 233h-409z" glyph-name="comma" horiz-adv-x="514" unicode=","/><glyph d="M905 512h-882v442h882v-442z" glyph-name="hyphen" horiz-adv-x="927" unicode="-"/><glyph d="M492 0h-469v469h469v-469z" glyph-name="period" horiz-adv-x="514" unicode="."/><glyph d="M23 0l284 1466h316l-285 -1466h-315z" glyph-name="slash" horiz-adv-x="645" unicode="/"/><glyph d="M1202 477q0 -238 -172 -366.5t-420 -128.5t-417.5 127t-169.5 368v512q0 160 125.5 327t463.5 167q250 0 420 -126t170 -368v-512zM702 541v385q0 37 -26.5 63.5t-63.5 26.5t-63.5 -26.5t-26.5 -63.5v-385q0 -37 26.5 -63.5t63.5 -26.5t63.5 26.5t26.5 63.5z" glyph-name="zero" horiz-adv-x="1224" unicode="0"/><glyph d="M1040 0h-1017v467h221v530h-221v469h798v-999h219v-467z" glyph-name="one" horiz-adv-x="1062" unicode="1"/><glyph d="M702 923q0 42 -25.5 67.5t-63.5 25.5t-64.5 -25.5t-26.5 -62.5v-49h-499v122q0 211 155.5 346.5t434 135.5t434 -135.5t155.5 -349.5t-160.5 -346t-423.5 -183h584v-469h-1179v469q432 192 555.5 302t123.5 152z" glyph-name="two" horiz-adv-x="1224" unicode="2"/><glyph d="M1204 477q0 -217 -155.5 -355t-436 -138t-435 138t-154.5 355v76h499v-45q0 -39 26.5 -64.5t64.5 -25.5t63.5 25.5t25.5 63.5t-24.5 64.5t-61.5 26.5h-94v326h72q27 0 45 19.5t18 48t-19.5 48t-48 19.5t-48 -19.5t-19.5 -48.5v-24h-452v59q0 225 155 342t389 117 t388.5 -117t154.5 -342q0 -141 -76 -242q123 -123 123 -307z" glyph-name="three" horiz-adv-x="1214" unicode="3"/><glyph d="M508 834v124l-102 -124h102zM987 834h221v-322h-221v-43h221v-469h-952v469h221v43h-454v322l542 632h422v-632z" glyph-name="four" horiz-adv-x="1230" unicode="4"/><glyph d="M1202 483q0 -248 -164 -374.5t-414 -126.5t-425.5 123.5t-175.5 349.5v14h483q8 -39 38.5 -63.5t72.5 -24.5t74 31.5t32 77t-32 78t-74 32.5t-72.5 -25.5t-38.5 -62.5h-481v954h1177v-469h-698v-43h108q590 0 590 -471z" glyph-name="five" horiz-adv-x="1224" unicode="5"/><glyph d="M1202 477q0 -217 -156 -356t-420 -139t-433.5 127t-169.5 368v512q0 246 167.5 370t432.5 124t420 -135.5t159 -348.5h-502q-18 68 -88 68q-37 0 -63.5 -26.5t-26.5 -63.5v-64q78 57 253 57t301 -125.5t126 -303.5v-64zM723 516q0 45 -33 77t-78 32t-76.5 -32t-31.5 -77 t31.5 -77.5t77.5 -32.5t78 32.5t32 77.5z" glyph-name="six" horiz-adv-x="1224" unicode="6"/><glyph d="M485 997v-182h-462v651h1179v-469l-522 -997h-586l527 997h-136z" glyph-name="seven" horiz-adv-x="1212" unicode="7"/><glyph d="M1202 462q0 -202 -154.5 -340t-435 -138t-435 138t-154.5 340t122 322q-76 100 -75 242q0 227 152.5 343t386.5 116t390 -117t156 -342q0 -143 -74 -242q121 -120 121 -322zM680 991.5q0 28.5 -20.5 48t-47 19.5t-47 -19.5t-20.5 -48t19.5 -48t48 -19.5t48 19.5t19.5 48z M702 507q0 38 -25.5 64.5t-63.5 26.5t-64.5 -26.5t-26.5 -64.5t26.5 -63.5t64.5 -25.5t63.5 25.5t25.5 63.5z" glyph-name="eight" horiz-adv-x="1224" unicode="8"/><glyph d="M1202 477q0 -246 -168 -370.5t-433 -124.5t-419.5 135t-158.5 348h503q8 -29 32 -47.5t58 -18.5t60 27t26 63v62q-78 -55 -252 -55t-300.5 126t-126.5 304v63q0 217 154.5 355.5t419.5 138.5t435 -126t170 -368v-512zM723 950q0 45 -32 78t-78 33t-77.5 -33t-31.5 -78 t31.5 -76.5t76.5 -31.5t78 31.5t33 76.5z" glyph-name="nine" horiz-adv-x="1224" unicode="9"/><glyph d="M492 766h-469v467h469v-467zM494 0h-469v467h469v-467z" glyph-name="colon" horiz-adv-x="514" unicode=":"/><glyph d="M492 766h-469v467h469v-467zM25 0v467h469v-467l-205 -233h-60l205 233h-409z" glyph-name="semicolon" horiz-adv-x="514" unicode=";"/><glyph d="M1184 1233l-621 -621l615 -612h-555l-613 612l619 621h555z" glyph-name="less" horiz-adv-x="1193" unicode="&lt;"/><glyph d="M1348 756h-1325v442h1325v-442zM1348 268h-1325v443h1325v-443z" glyph-name="equal" horiz-adv-x="1370" unicode="="/><glyph d="M631 612l-621 621h555l619 -621l-613 -612h-555z" glyph-name="greater" horiz-adv-x="1193" unicode=">"/><glyph d="M1176 990q0 -222 -156 -350t-418 -128h-278v328h249q35 0 59.5 26.5t24.5 62.5t-25.5 61.5t-62.5 25.5t-62.5 -25.5t-25.5 -62.5v-45h-458v73q0 217 153.5 372t424.5 155t423 -135.5t152 -357.5zM901 0h-577v469h577v-469z" glyph-name="question" horiz-adv-x="1185" unicode="?"/><glyph d="M1327 874q0 246 -171 409t-431 163t-471 -215t-211 -509t186.5 -500t475.5 -206q154 0 316.5 58.5t276.5 163.5l23 -19q-119 -111 -288 -173t-328 -62q-299 0 -497 216t-198 522t219.5 531.5t493.5 225.5t455.5 -174.5t181.5 -434.5q0 -223 -115 -398t-295 -175 q-115 0 -174 90q-109 -94 -250 -94t-237 106.5t-96 266.5q0 215 155.5 378.5t347.5 163.5q141 0 222 -106l16 94h221l-108 -610q-14 -41 12 -67.5t70 -26.5t87.5 38.5t77 130t33.5 213.5zM655 848q-37 0 -66.5 -27.5t-36.5 -67.5t13.5 -68t56.5 -28t66.5 28t37.5 68 t-13.5 67.5t-57.5 27.5z" glyph-name="at" horiz-adv-x="1370" unicode="@"/><glyph d="M1552 0h-880l-23 469h-43l-22 -469h-561v469h241l47 528h-288v469h1529v-469h-290l47 -528h243v-469zM659 733l-30 354l-33 -354h63z" glyph-name="A" horiz-adv-x="1574" unicode="A"/><glyph d="M1466 468q0 -198 -150.5 -333t-424.5 -135h-868v469h241v528h-241v469h849q152 0 271 -42t198.5 -146t79.5 -252t-73 -244q118 -116 118 -314zM934 584q0 47 -34 80.5t-81 33.5v-229q47 0 81 34t34 81zM907 909q0 37 -25.5 62.5t-62.5 25.5v-176q37 0 62.5 25.5 t25.5 62.5z" glyph-name="B" horiz-adv-x="1476" unicode="B"/><glyph d="M10 733q0 311 220.5 530.5t529.5 219.5q240 0 383 -148v131h368v-710h-553q-10 74 -66 125t-135 51t-136.5 -58.5t-57.5 -140.5t57.5 -140t136.5 -58t135 51t66 125h553q-10 -303 -228 -515t-525 -212t-527.5 219t-220.5 530z" glyph-name="C" horiz-adv-x="1533" unicode="C"/><glyph d="M1571 733q0 -303 -214 -518t-519 -215h-815v469h241v528h-241v469h815q305 0 519 -215t214 -518zM1020 733q0 82 -58.5 140.5t-140.5 58.5v-397q82 0 140.5 58t58.5 140z" glyph-name="D" horiz-adv-x="1581" unicode="D"/><glyph d="M1329 0h-1306v469h247v528h-247v469h1306v-702h-221v233h-260v-43h217v-442h-217v-43h260v252h221v-721z" glyph-name="E" horiz-adv-x="1351" unicode="E"/><glyph d="M1329 1466v-702h-221v233h-260v-43h217v-442h-217v-43h217v-469h-1042v469h247v528h-247v469h1306z" glyph-name="F" horiz-adv-x="1351" unicode="F"/><glyph d="M1511 0h-368v133q-145 -152 -383 -151q-311 0 -530.5 220t-219.5 531t220.5 530.5t524.5 219.5t521 -205t233 -502h-555q-16 68 -70 112t-130 44t-133.5 -58.5t-57.5 -140.5t57.5 -140t139.5 -58v198h751v-733z" glyph-name="G" horiz-adv-x="1533" unicode="G"/><glyph d="M1802 0h-868v469h92v43h-227v-43h90v-469h-866v469h241v528h-241v469h866v-469h-90v-43h227v43h-92v469h868v-469h-243v-528h243v-469z" glyph-name="H" horiz-adv-x="1824" unicode="H"/><glyph d="M1083 0h-1060v469h241v528h-241v469h1060v-469h-241v-528h241v-469z" glyph-name="I" horiz-adv-x="1105" unicode="I"/><glyph d="M395 0h-372v469h241v528h-241v469h1081v-469h-242v-530q0 -193 -136 -330t-331 -137z" glyph-name="J" horiz-adv-x="1126" unicode="J"/><glyph d="M1872 0h-985v469h88l-133 244v-713h-819v469h241v528h-241v469h819v-712l88 712h942v-469h-537l295 -528h242v-469z" glyph-name="K" horiz-adv-x="1894" unicode="K"/><glyph d="M1284 0h-1261v469h241v528h-241v469h1062v-469h-243v-528h45v485h397v-954z" glyph-name="L" horiz-adv-x="1306" unicode="L"/><glyph d="M2058 0h-782v733l-88 -733h-520l-90 733v-733h-555v469h241v528h-241v469h913l43 -733l45 733h1034v-469h-241v-528h241v-469z" glyph-name="M" horiz-adv-x="2080" unicode="M"/><glyph d="M1577 0h-911l-88 733v-733h-555v469h241v528h-241v469h913l88 -733v733h553v-469h-242v-528h242v-469z" glyph-name="N" horiz-adv-x="1599" unicode="N"/><glyph d="M1511 733q0 -311 -220 -530t-530 -219t-530.5 219t-220.5 530t220.5 530.5t530.5 219.5t530 -219.5t220 -530.5zM958 733q0 82 -57 140.5t-140 58.5t-140.5 -58.5t-57.5 -140.5t57.5 -140t140.5 -58t140 58t57 140z" glyph-name="O" horiz-adv-x="1521" unicode="O"/><glyph d="M1540 988q0 -198 -139 -337t-338 -139h-221v-43h243v-469h-1062v469h241v528h-241v469h1040q197 0 337 -140t140 -338zM954 883q0 47 -33.5 80.5t-80.5 33.5v-229q47 0 80.5 34t33.5 81z" glyph-name="P" horiz-adv-x="1562" unicode="P"/><glyph d="M561 733q0 -82 58.5 -140t135.5 -58t128 40l-154 158h62l124 -125q43 53 43 130t-58 134.5t-140 57.5t-140.5 -57.5t-58.5 -139.5zM10 733q0 311 220.5 530.5t530.5 219.5t530 -219.5t220 -525.5t-208 -525l208 -213h-63l-178 182q-215 -198 -517 -198t-522.5 219 t-220.5 530z" glyph-name="Q" horiz-adv-x="1521" unicode="Q"/><glyph d="M1581 0h-694l-88 512v-512h-776v469h241v528h-241v469h1013q211 0 378 -148.5t167 -337.5t-110.5 -325.5t-278.5 -175.5l2 -10h387v-469zM913 883q0 47 -33.5 80.5t-80.5 33.5v-229q47 0 80.5 34t33.5 81z" glyph-name="R" horiz-adv-x="1603" unicode="R"/><glyph d="M729 1466h492v-583h-492v41q-2 16 -16.5 29.5t-32.5 13.5t-32.5 -14.5t-14.5 -32.5q0 -41 39 -48l200 -38q156 -31 252.5 -148.5t96.5 -283.5t-125 -292t-291 -126t-266 149v-133h-516v582h516v-35q0 -18 12.5 -32.5t32.5 -14.5t33.5 14t13.5 33q0 39 -37 47l-225 43 q-156 29 -251 145.5t-95 283.5t125.5 293t311.5 126t269 -152v133z" glyph-name="S" horiz-adv-x="1243" unicode="S"/><glyph d="M1483 512h-398v485h-45v-528h244v-469h-1063v469h242v528h-43v-485h-397v954h1460v-954z" glyph-name="T" horiz-adv-x="1505" unicode="T"/><glyph d="M958 997v469h684v-469h-243v-540q0 -238 -162 -356.5t-405.5 -118.5t-405.5 118.5t-162 356.5v540h-241v469h890v-942q0 -27 19.5 -46t47.5 -19t47.5 19.5t19.5 45.5v473h-89z" glyph-name="U" horiz-adv-x="1665" unicode="U"/><glyph d="M1485 997h-244l-88 -997h-801l-88 997h-241v469h811l43 -725l45 725h563v-469z" glyph-name="V" horiz-adv-x="1505" unicode="V"/><glyph d="M2179 997h-244l-88 -997h-669l-45 743l-43 -743h-738l-88 997h-241v469h747l43 -725l45 725h715l43 -725l45 725h518v-469z" glyph-name="W" horiz-adv-x="2201" unicode="W"/><glyph d="M1505 1466v-469h-243l-140 -270l140 -258h243v-469h-833l-43 578l-45 -578h-561v469h241l142 270l-142 258h-241v469h831l45 -577l43 577h563z" glyph-name="X" horiz-adv-x="1527" unicode="X"/><glyph d="M1505 997h-243l-205 -397v-131h243v-469h-1062v469h241v131l-215 397h-241v469h831l45 -577l43 577h563v-469z" glyph-name="Y" horiz-adv-x="1527" unicode="Y"/><glyph d="M1221 0h-1198v600l555 397h-191v-116h-364v585h1198v-604l-555 -393h190v117h365v-586z" glyph-name="Z" horiz-adv-x="1243" unicode="Z"/><glyph d="M711 999h-222v-530h222v-469h-688v1464l688 2v-467z" glyph-name="bracketleft" horiz-adv-x="733" unicode="["/><glyph d="M338 1466l285 -1466h-316l-284 1466h315z" glyph-name="backslash" horiz-adv-x="645" unicode="\"/><glyph d="M23 999v467l688 -2v-1464h-688v469h221v530h-221z" glyph-name="bracketright" horiz-adv-x="733" unicode="]"/><glyph d="M537 1466l510 -135v-401l-510 135l-514 -135v401z" glyph-name="asciicircum" horiz-adv-x="1069" unicode="^"/><glyph d="M0 -86v45h1024v-45h-1024z" glyph-name="underscore" horiz-adv-x="1024" unicode="_"/><glyph d="M10 1741h672l61 -469h-495z" glyph-name="grave" horiz-adv-x="765" unicode="`"/><glyph d="M1477 0h-469v133q-147 -152 -365 -151q-262 0 -447.5 186t-185.5 448.5t185.5 447.5t447.5 185q219 0 365 -149v133h469v-469h-134v-295h134v-469zM811 615q0 54 -39 93.5t-94 39.5t-94 -39t-39 -93t39 -93.5t94 -39.5t94 39t39 93z" glyph-name="a" horiz-adv-x="1499" unicode="a"/><glyph d="M1489 616.5q0 -262.5 -186.5 -448.5t-448.5 -186q-215 0 -362 151v-133h-469v469h133v528h-133v469h622v-258q94 41 209 41q262 0 448.5 -185t186.5 -447.5zM954 615q0 54 -38.5 93.5t-94 39.5t-94.5 -39t-39 -93t39 -93.5t94.5 -39.5t94 39t38.5 93z" glyph-name="b" horiz-adv-x="1499" unicode="b"/><glyph d="M640 -18q-259 0 -444.5 186t-185.5 448.5t185.5 447.5t447.5 185q213 0 342 -149v133h291q0 -569 2 -594h-504q-8 47 -45 78t-88 31t-90 -39t-39 -93t39 -93.5t90 -39.5t88 32t45 79h504q-10 -256 -194.5 -434t-443.5 -178z" glyph-name="c" horiz-adv-x="1300" unicode="c"/><glyph d="M1477 0h-469v127q-141 -145 -365 -145q-262 0 -447.5 186t-185.5 448.5t185.5 447.5t447.5 185q117 0 211 -41v258h623v-469h-134v-528h134v-469zM809 615q0 54 -39 93.5t-93 39.5t-93 -39t-39 -93t39 -93.5t93 -39.5t93 39t39 93z" glyph-name="d" horiz-adv-x="1499" unicode="d"/><glyph d="M1278 616q0 -47 -10 -104h-713q0 -37 25.5 -62.5t69.5 -25.5t69 45h541q-49 -211 -222.5 -349t-394.5 -138q-262 0 -447.5 186t-185.5 448.5t185.5 447.5t447.5 185t448.5 -185.5t186.5 -447.5zM745 735q0 41 -29.5 71t-71.5 30t-71.5 -30t-29.5 -71h202z" glyph-name="e" unicode="e"/><glyph d="M623 1466h282v-469h-172v-45h172v-440h-172v-43h172v-469h-882v469h133v43h-133v440h133v45q0 195 137 332t330 137z" glyph-name="f" horiz-adv-x="927" unicode="f"/><glyph d="M1409 764h-131v-483q0 -254 -178 -393.5t-453 -139.5q-162 0 -301 58.5t-231 182.5t-92 292h544q2 -27 20.5 -45.5t46.5 -18.5t47 17.5t19 44.5v83q-96 -57 -215 -57q-195 0 -328.5 138.5t-133.5 335t133.5 333.5t331.5 137t305 -149v133h616v-469zM721 682 q0 37 -26.5 62.5t-62.5 25.5t-61.5 -25.5t-25.5 -62.5t25.5 -62.5t61.5 -25.5t62.5 25.5t26.5 62.5z" glyph-name="g" horiz-adv-x="1431" unicode="g"/><glyph d="M1559 0h-695v715q0 29 -19.5 48t-46 19t-46 -19.5t-19.5 -47.5v-246h88v-469h-798v469h133v528h-133v469h710v-354q117 137 290 137t287.5 -115.5t114.5 -279.5v-385h134v-469z" glyph-name="h" horiz-adv-x="1581" unicode="h"/><glyph d="M156 1466h577v-469h-577v469zM23 0v469h133v485h577v-485h131v-469h-841z" glyph-name="i" horiz-adv-x="886" unicode="i"/><glyph d="M156 1466h577v-469h-577v469zM156 954h577v-721q0 -193 -137 -329.5t-332 -136.5h-241v466h133v721z" glyph-name="j" horiz-adv-x="755" unicode="j"/><glyph d="M1571 0h-750v469h43l-131 244v-244h43v-469h-753v469h133v528h-133v469h710v-712l88 479h750v-469h-297l164 -295h133v-469z" glyph-name="k" horiz-adv-x="1593" unicode="k"/><glyph d="M864 0h-841v469h133v528h-133v469h710v-997h131v-469z" glyph-name="l" horiz-adv-x="886" unicode="l"/><glyph d="M2251 0h-692v715q0 27 -19.5 47t-47.5 20t-47.5 -20.5t-19.5 -46.5v-246h88v-469h-649v715q0 29 -19.5 48t-46 19t-46 -19.5t-19.5 -47.5v-246h88v-469h-798v469h133v295h-133v469h710v-133q127 150 299 149q109 0 202 -56t144 -149q49 94 142.5 149.5t203.5 55.5 q164 0 280 -115.5t116 -279.5v-385h131v-469z" glyph-name="m" horiz-adv-x="2273" unicode="m"/><glyph d="M1559 0h-695v715q0 29 -19.5 48t-46 19t-46 -19.5t-19.5 -47.5v-246h88v-469h-798v469h133v295h-133v469h710v-133q127 150 295 150t282.5 -116t114.5 -280v-385h134v-469z" glyph-name="n" horiz-adv-x="1581" unicode="n"/><glyph d="M1278 616.5q0 -262.5 -186.5 -448.5t-448.5 -186t-447.5 186t-185.5 448.5t185.5 447.5t447.5 185t448.5 -185t186.5 -447.5zM776 615q0 54 -39 93.5t-93 39.5t-93 -39t-39 -93t39 -93.5t93 -39.5t93 39t39 93z" glyph-name="o" unicode="o"/><glyph d="M23 1233h469v-133q145 150 362 149q262 0 448.5 -185.5t186.5 -451.5t-142.5 -448t-373.5 -182q-145 0 -221.5 50t-96.5 87l-10 14v-366h-622v469h133v528h-133v469zM688 615q0 -54 39 -93t94.5 -39t94 39t38.5 93t-38.5 93.5t-94 39.5t-94.5 -39.5t-39 -93.5z" glyph-name="p" horiz-adv-x="1499" unicode="p"/><glyph d="M1477 -233h-623v256q-94 -41 -211 -41q-262 0 -447.5 186t-185.5 448.5t185.5 447.5t447.5 185q225 0 365 -145v129h469v-469h-134v-528h134v-469zM809 615q0 54 -39 93.5t-93 39.5t-93 -39t-39 -93t39 -93.5t93 -39.5t93 39t39 93z" glyph-name="q" horiz-adv-x="1499" unicode="q"/><glyph d="M1425 512h-561v203q0 29 -19.5 48t-46 19t-46 -19.5t-19.5 -47.5v-246h88v-469h-798v469h133v295h-133v469h710v-133q127 150 295 150t282.5 -116t114.5 -280v-342z" glyph-name="r" horiz-adv-x="1447" unicode="r"/><glyph d="M498 469q0 -51 30.5 -51t43 13t12.5 36t-31 38t-81 21t-109.5 13.5t-119 29t-109.5 57.5t-80.5 108.5t-30.5 172.5q0 141 100 241.5t242 100.5q180 0 282 -149v133h479v-508h-452v39q0 47 -43 47q-16 0 -29.5 -12.5t-13.5 -38.5t40 -43t99 -22t130 -24.5t130.5 -51 t99 -107t39.5 -202.5t-99 -227.5t-241 -100.5q-86 0 -160.5 40.5t-121.5 110.5v-133h-481v502h475v-33z" glyph-name="s" horiz-adv-x="1148" unicode="s"/><glyph d="M733 1233h172v-469h-172v-295h172v-469h-409q-141 0 -240.5 100.5t-99.5 241.5v422h-133v469h133v135l577 98v-233z" glyph-name="t" horiz-adv-x="927" unicode="t"/><glyph d="M1559 0h-711v133q-127 -149 -295 -149t-282.5 114.5t-114.5 278.5v387h-133v469h692v-717q0 -27 19.5 -46t48 -19t47 18t18.5 47v248h-88v469h799v-469h-134v-295h134v-469z" glyph-name="u" horiz-adv-x="1581" unicode="u"/><glyph d="M1196 764h-133l-88 -764h-731l-88 764h-133v469h677l45 -635l43 635h408v-469z" glyph-name="v" horiz-adv-x="1218" unicode="v"/><glyph d="M1937 764h-131l-88 -764h-692l-45 616l-47 -616h-690l-88 764h-133v469h636l46 -617l43 617h694l45 -617l43 617h407v-469z" glyph-name="w" horiz-adv-x="1961" unicode="w"/><glyph d="M1284 0h-721l-45 444l-45 -444h-450v469h133l75 147l-75 148h-133v469h720l45 -447l43 447h453v-469h-133l-76 -148l76 -147h133v-469z" glyph-name="x" horiz-adv-x="1306" unicode="x"/><glyph d="M1194 764h-133l-70 -584q-23 -178 -154.5 -295.5t-310.5 -117.5h-503v469h286l-153 528h-133v469h675l45 -617l43 617h408v-469z" glyph-name="y" horiz-adv-x="1216" unicode="y"/><glyph d="M340 897v-133h-317v469h1103v-531l-530 -366h213v133h317v-469h-1103v528l528 369h-211z" glyph-name="z" horiz-adv-x="1148" unicode="z"/><glyph d="M711 1466h219v-469h-219v-131q0 -55 -39 -94t-94 -39q55 0 94 -39t39 -94v-131h219v-469h-219q-195 0 -331 137t-136 332v43h-221v442h221v43q0 195 137 332t330 137z" glyph-name="braceleft" horiz-adv-x="952" unicode="{"/><glyph d="M332 0h-309v1466h309v-1466zM23 0h309v1466h-309v-1466z" glyph-name="bar" horiz-adv-x="354" unicode="|"/><glyph d="M242 1466q193 0 331 -137t138 -332v-43h219v-442h-219v-43q0 -195 -137.5 -332t-331.5 -137h-219v469h221v131q0 55 39 94t92 39q-53 0 -92 39t-39 94v131h-221v469h219z" glyph-name="braceright" horiz-adv-x="952" unicode="}"/><glyph d="M1116 979q0 -170 -79 -278.5t-240 -108.5q-82 0 -214 42t-177 42q-68 0 -84 -84h-299q0 170 78.5 278.5t240.5 108.5q82 0 214 -42t177 -42q68 0 84 84h299z" glyph-name="asciitilde" horiz-adv-x="1138" unicode="~"/><glyph glyph-name="uni00A0" horiz-adv-x="450" unicode=" "/><glyph d="M23 954h577v-954h-577v954zM600 997h-577v469h577v-469z" glyph-name="exclamdown" horiz-adv-x="622" unicode="¡"/><glyph d="M654 748q-52 0 -91 -39t-39 -93t39 -93.5t91 -39.5t88 32t46 79h502q-8 -254 -192.5 -432t-438.5 -178t-434 170l-153 -154h-62l185 184q-170 180 -170 437t185 442.5t440 185.5t440 -170l153 154h62l-185 -184q162 -174 170 -410h-502q-10 47 -46 78t-88 31z" glyph-name="cent" horiz-adv-x="1314" unicode="¢"/><glyph d="M1386 913v-112h-516v196h-43v-262h301v-45h-301v-221h559v-469h-1363v469h227v221h-227v45h227l-2 178q-2 236 166 403t403.5 167t402 -166t166.5 -404z" glyph-name="sterling" horiz-adv-x="1409" unicode="£"/><glyph d="M682 1151q143 0 264 -86l131 131l105 -106l-129 -132q84 -125 84 -267t-84 -259l129 -129l-105 -104l-131 129q-127 -88 -269 -88t-259 88l-129 -129l-107 104l131 129q-86 137 -86 271t86 255l-131 132l107 106l129 -131q121 86 264 86zM682 1004q-127 0 -217 -91.5 t-90 -218.5t90 -217t217 -90t217 90t90 217t-90 218.5t-217 91.5z" glyph-name="currency" horiz-adv-x="1366" unicode="¤"/><glyph d="M1460 600h-426v-131h221v-469h-1017v469h219v131h-434v43h411l-72 133h-339v45h315l-94 176h-221v469h808l46 -577l43 577h540v-469h-221l-90 -176h311v-45h-336l-67 -133h403v-43z" glyph-name="yen" horiz-adv-x="1482" unicode="¥"/><glyph d="M332 997h-309v469h309v-469zM332 0h-309v469h309v-469z" glyph-name="brokenbar" horiz-adv-x="354" unicode="¦"/><glyph d="M1049 68q0 -131 -93.5 -223.5t-224.5 -92.5q-174 0 -268 146v-131h-424v456h424l2 -20q0 -47 39 -47q16 0 27.5 12t11.5 29q0 55 -133.5 62t-221.5 52t-126.5 118t-38.5 181q0 172 147 269q-147 78 -147 284q0 131 93 224.5t224 93.5q172 0 268 -148v133h424v-458h-424 l-2 20q0 47 -39 47q-16 0 -28.5 -11t-12.5 -28q0 -35 54.5 -49t130 -23.5t152.5 -34t131.5 -102t54.5 -206.5q0 -172 -148 -269q148 -77 148 -284zM657 616.5q0 51.5 -35.5 87t-87 35.5t-87 -35.5t-35.5 -87t35.5 -87t87 -35.5t87 35.5t35.5 87z" glyph-name="section" horiz-adv-x="1071" unicode="§"/><glyph d="M938 1276h-397v469h397v-469zM496 1276h-400v469h400v-469z" glyph-name="dieresis" horiz-adv-x="1036" unicode="¨"/><glyph d="M524 1226.5q0 -106.5 -75.5 -181t-182 -74.5t-181.5 74.5t-75 181t75 181.5t181.5 75t182 -75t75.5 -181.5zM479 1227q0 88 -62.5 150.5t-150.5 62.5t-149.5 -62.5t-61.5 -150.5t61.5 -150.5t149.5 -62.5t150.5 62.5t62.5 150.5zM399 1245h-45q-8 31 -31.5 51.5 t-58.5 20.5t-60.5 -26.5t-25.5 -63.5t25.5 -63.5t64.5 -26.5q66 0 86 65h45q-10 -47 -46 -77.5t-88 -30.5t-92 38.5t-40 94t40 94.5t92 39t91 -33v33h43v-115z" glyph-name="copyright" horiz-adv-x="534" unicode="©"/><glyph d="M1477 233h-469v134q-147 -152 -365 -152q-262 0 -447.5 186.5t-185.5 448.5t185.5 447.5t447.5 185.5q219 0 365 -150v133h469v-469h-134v-295h134v-469zM811 849q0 54 -39 93t-94 39t-94 -39t-39 -93t39 -93t94 -39t94 39t39 93z" glyph-name="ordfeminine" horiz-adv-x="1499" unicode="ª"/><glyph d="M1006 106h-402l-135 510l135 514h402l-136 -514zM559 106h-401l-135 510l135 514h401l-135 -514z" glyph-name="guillemotleft" horiz-adv-x="1028" unicode="«"/><glyph d="M524 1226.5q0 -106.5 -75.5 -181t-182 -74.5t-181.5 74.5t-75 181t75 181.5t181.5 75t182 -75t75.5 -181.5zM479 1227q0 88 -62.5 150.5t-150.5 62.5t-149.5 -62.5t-61.5 -150.5t61.5 -150.5t149.5 -62.5t150.5 62.5t62.5 150.5zM428 1120h-51l-101 84h-77v-47h39v-37 h-115v37h39v139h-39v39h227q27 0 46.5 -18.5t19.5 -47t-19.5 -47t-46.5 -18.5h-14l55 -47h37v-37zM379 1269.5q0 26.5 -29 26.5h-151v-53h151q29 0 29 26.5z" glyph-name="registered" horiz-adv-x="534" unicode="®"/><glyph d="M23 1255v271h610v-271h-610z" glyph-name="macron" horiz-adv-x="655" unicode="¯"/><glyph d="M492 1248q0 -97 -69 -165.5t-166 -68.5t-165.5 68.5t-68.5 165.5t68.5 166t165.5 69t166 -69t69 -166zM299 1248q0 17 -12.5 29.5t-29.5 12.5t-29.5 -12t-12.5 -30t12.5 -30t29.5 -12t29.5 12.5t12.5 29.5z" glyph-name="degree" horiz-adv-x="514" unicode="°"/><glyph d="M702 923q0 42 -25.5 67.5t-63.5 25.5t-64.5 -25.5t-26.5 -62.5v-49h-499v122q0 211 155.5 346.5t434 135.5t434 -135.5t155.5 -349.5t-160.5 -346t-423.5 -183h584v-469h-1179v469q432 192 555.5 302t123.5 152z" glyph-name="uni00B2" horiz-adv-x="1224" unicode="²"/><glyph d="M1204 477q0 -217 -155.5 -355t-436 -138t-435 138t-154.5 355v76h499v-45q0 -39 26.5 -64.5t64.5 -25.5t63.5 25.5t25.5 63.5t-24.5 64.5t-61.5 26.5h-94v326h72q27 0 45 19.5t18 48t-19.5 48t-48 19.5t-48 -19.5t-19.5 -48.5v-24h-452v59q0 225 155 342t389 117 t388.5 -117t154.5 -342q0 -141 -76 -242q123 -123 123 -307z" glyph-name="uni00B3" horiz-adv-x="1214" unicode="³"/><glyph d="M84 1741h672l-238 -469h-495z" glyph-name="acute" horiz-adv-x="765" unicode="´"/><glyph d="M1573 0h-711v119q-53 -63 -131 -101v-251h-575v997h-133v469h708v-717q0 -29 19.5 -47t46 -18t46 18t19.5 47v248h-88v469h799v-469h-133v-295h133v-469z" glyph-name="uni00B5" horiz-adv-x="1595" unicode="µ"/><glyph d="M1573 0h-711v119q-53 -63 -131 -101v-251h-575v997h-133v469h708v-717q0 -29 19.5 -47t46 -18t46 18t19.5 47v248h-88v469h799v-469h-133v-295h133v-469z" glyph-name="uni00B5" horiz-adv-x="1595" unicode="μ"/><glyph d="M1325 -233h-397v1699h397v-1699zM885 -233h-398v745q-199 0 -338 139t-139 337t139.5 338t337.5 140h398v-1699z" glyph-name="paragraph" horiz-adv-x="1347" unicode="¶"/><glyph d="M23 977h577v-469h-577v469z" glyph-name="periodcentered" horiz-adv-x="622" unicode="·"/><glyph d="M483 -530v467h469v-467l-204 -234h-60l205 234h-410z" glyph-name="cedilla" horiz-adv-x="1538" unicode="¸"/><glyph d="M1040 0h-1017v467h221v530h-221v469h798v-999h219v-467z" glyph-name="uni00B9" horiz-adv-x="1062" unicode="¹"/><glyph d="M1278 850q0 -262 -186.5 -448.5t-448.5 -186.5t-447.5 186.5t-185.5 448.5t185.5 447.5t447.5 185.5t448.5 -185.5t186.5 -447.5zM776 849q0 54 -39 93t-93 39t-93 -39t-39 -93t39 -93t93 -39t93 39t39 93z" glyph-name="ordmasculine" unicode="º"/><glyph d="M1006 616l-136 -510h-401l135 510l-135 514h401zM559 616l-135 -510h-401l135 510l-135 514h401z" glyph-name="guillemotright" horiz-adv-x="1028" unicode="»"/><glyph d="M1040 0h-1017v467h221v530h-221v469h798v-999h219v-467zM1085 0l285 1466h316l-285 -1466h-316zM2093 834v124l-102 -124h102zM2572 834h221v-322h-221v-43h221v-469h-952v469h221v43h-454v322l542 632h422v-632z" glyph-name="onequarter" horiz-adv-x="2816" unicode="¼"/><glyph d="M1040 0h-1017v467h221v530h-221v469h798v-999h219v-467zM1085 0l285 1466h316l-285 -1466h-316zM2320 923q0 42 -25.5 67.5t-63.5 25.5t-64.5 -25.5t-26.5 -62.5v-49h-500v122q0 211 156 346.5t434.5 135.5t434 -135.5t155.5 -349.5t-160.5 -346t-423.5 -183h584v-469 h-1180v469q270 120 401.5 200.5t205 146t73.5 107.5z" glyph-name="onehalf" horiz-adv-x="2844" unicode="½"/><glyph d="M1204 477q0 -217 -155.5 -355t-436 -138t-435 138t-154.5 355v76h499v-45q0 -39 26.5 -64.5t64.5 -25.5t63.5 25.5t25.5 63.5t-24.5 64.5t-61.5 26.5h-94v326h72q27 0 45 19.5t18 48t-19.5 48t-48 19.5t-48 -19.5t-19.5 -48.5v-24h-452v59q0 225 155 342t389 117 t388.5 -117t154.5 -342q0 -141 -76 -242q123 -123 123 -307zM1167 0l285 1466h315l-284 -1466h-316zM2171 834v124l-103 -124h103zM2650 834h221v-322h-221v-43h221v-469h-952v469h221v43h-454v322l542 632h422v-632z" glyph-name="threequarters" horiz-adv-x="2893" unicode="¾"/><glyph d="M862 997h-577v469h577v-469zM1163 510q0 -217 -153.5 -371.5t-424.5 -154.5t-423 135t-152 359t156 350t418 126h278v-327h-250q-35 0 -59.5 -26.5t-24.5 -62.5t26 -61.5t62.5 -25.5t62.5 25.5t26 62.5v45h458v-74z" glyph-name="questiondown" horiz-adv-x="1173" unicode="¿"/><glyph d="M1552 0h-880l-23 469h-43l-22 -469h-561v469h241l47 528h-288v469h1529v-469h-290l47 -528h243v-469zM659 733l-30 354l-33 -354h63zM262 1980h672l61 -469h-495z" glyph-name="Agrave" horiz-adv-x="1574" unicode="À"/><glyph d="M1552 0h-880l-23 469h-43l-22 -469h-561v469h241l47 528h-288v469h1529v-469h-290l47 -528h243v-469zM659 733l-30 354l-33 -354h63zM500 1978h671l-237 -469h-496z" glyph-name="Aacute" horiz-adv-x="1574" unicode="Á"/><glyph d="M1552 0h-880l-23 469h-43l-22 -469h-561v469h241l47 528h-288v469h1529v-469h-290l47 -528h243v-469zM659 733l-30 354l-33 -354h63zM1243 1509h-395l-43 246l-45 -246h-393l133 469h610z" glyph-name="Acircumflex" horiz-adv-x="1574" unicode="Â"/><glyph d="M1552 0h-880l-23 469h-43l-22 -469h-561v469h241l47 528h-288v469h1529v-469h-290l47 -528h243v-469zM659 733l-30 354l-33 -354h63zM1333 1896q0 -170 -78.5 -278.5t-240.5 -108.5q-82 0 -214 42t-177 42q-68 0 -84 -84h-299q0 170 78.5 278.5t240.5 108.5q82 0 214 -42 t177 -42q68 0 84 84h299z" glyph-name="Atilde" horiz-adv-x="1574" unicode="Ã"/><glyph d="M1552 0h-880l-23 469h-43l-22 -469h-561v469h241l47 528h-288v469h1529v-469h-290l47 -528h243v-469zM659 733l-30 354l-33 -354h63zM1208 1507h-397v469h397v-469zM766 1507h-399v469h399v-469z" glyph-name="Adieresis" horiz-adv-x="1574" unicode="Ä"/><glyph d="M1552 0h-880l-23 469h-43l-22 -469h-561v469h241l47 528h-288v469h1529v-469h-290l47 -528h243v-469zM659 733l-30 354l-33 -354h63zM1022 1746q0 -97 -68 -166t-166 -69t-166.5 69t-68.5 166t68.5 165.5t165.5 68.5t166 -68.5t69 -165.5zM829 1746q0 17 -11.5 29.5 t-29.5 12.5t-30.5 -12.5t-12.5 -29.5t12.5 -29.5t29.5 -12.5t29.5 12.5t12.5 29.5z" glyph-name="Aring" horiz-adv-x="1574" unicode="Å"/><glyph d="M10 733q0 311 220.5 530.5t531.5 219.5q240 0 381 -148v131h368v-710h-553q-8 74 -64 125t-135 51t-137.5 -58.5t-58.5 -140.5t58.5 -140t137.5 -58t135 51t64 125h553q-10 -303 -227 -515t-525 -212t-528.5 219t-220.5 530zM526 -530v467h469v-467l-204 -234h-60 l205 234h-410z" glyph-name="Ccedilla" horiz-adv-x="1533" unicode="Ç"/><glyph d="M1329 0h-1306v469h247v528h-247v469h1306v-702h-221v233h-260v-43h217v-442h-217v-43h260v252h221v-721zM211 1976h672l61 -469h-495z" glyph-name="Egrave" horiz-adv-x="1351" unicode="È"/><glyph d="M1329 0h-1306v469h247v528h-247v469h1306v-702h-221v233h-260v-43h217v-442h-217v-43h260v252h221v-721zM422 1976h672l-238 -469h-496z" glyph-name="Eacute" horiz-adv-x="1351" unicode="É"/><glyph d="M1329 0h-1306v469h247v528h-247v469h1306v-702h-221v233h-260v-43h217v-442h-217v-43h260v252h221v-721zM1114 1509h-395l-43 246l-45 -246h-393l133 469h610z" glyph-name="Ecircumflex" horiz-adv-x="1351" unicode="Ê"/><glyph d="M1329 0h-1306v469h247v528h-247v469h1306v-702h-221v233h-260v-43h217v-442h-217v-43h260v252h221v-721zM1098 1507h-398v469h398v-469zM655 1507h-399v469h399v-469z" glyph-name="Edieresis" horiz-adv-x="1351" unicode="Ë"/><glyph d="M1085 0h-1062v469h241v528h-241v469h1062v-469h-243v-528h243v-469zM51 1976h672l61 -467h-495z" glyph-name="Igrave" horiz-adv-x="1107" unicode="Ì"/><glyph d="M1085 0h-1062v467h241v530h-241v469h1062v-469h-243v-530h243v-467zM326 1960h671l-237 -469h-496z" glyph-name="Iacute" horiz-adv-x="1107" unicode="Í"/><glyph d="M1085 0h-1062v467h241v530h-241v469h1062v-469h-243v-530h243v-467zM993 1509h-395l-43 246l-45 -246h-393l133 469h610z" glyph-name="Icircumflex" horiz-adv-x="1134" unicode="Î"/><glyph d="M1083 0h-1060v469h241v528h-241v469h1060v-469h-241v-528h241v-469zM965 1507h-398v469h398v-469zM522 1507h-399v469h399v-469z" glyph-name="Idieresis" horiz-adv-x="1107" unicode="Ï"/><glyph d="M1571 733q0 -303 -215 -518t-518 -215h-574v512h-241v442h241v512h574q303 0 518 -215t215 -518zM1018 733q0 82 -58.5 140.5t-140.5 58.5v-397q82 0 140.5 58t58.5 140z" glyph-name="Eth" horiz-adv-x="1581" unicode="Ð"/><glyph d="M1618 0h-952l-88 733v-733h-555v469h241v528h-241v469h954l88 -733v733h553v-469h-242v-528h242v-469zM1366 1898q0 -170 -79 -278.5t-240 -108.5q-82 0 -214.5 42t-177.5 42q-68 0 -84 -84h-299q0 170 79 278.5t241 108.5q82 0 214 -41.5t177 -41.5q68 -1 84 83h299z " glyph-name="Ntilde" horiz-adv-x="1640" unicode="Ñ"/><glyph d="M1511 733q0 -311 -220 -530t-530 -219t-530.5 219t-220.5 530t220.5 530.5t530.5 219.5t530 -219.5t220 -530.5zM958 733q0 82 -57 140.5t-140 58.5t-140.5 -58.5t-57.5 -140.5t57.5 -140t140.5 -58t140 58t57 140zM279 1974h671l62 -469h-496z" glyph-name="Ograve" horiz-adv-x="1521" unicode="Ò"/><glyph d="M1511 733q0 -311 -220 -530t-530 -219t-530.5 219t-220.5 530t220.5 530.5t530.5 219.5t530 -219.5t220 -530.5zM958 733q0 82 -57 140.5t-140 58.5t-140.5 -58.5t-57.5 -140.5t57.5 -140t140.5 -58t140 58t57 140zM571 1978h672l-237 -469h-496z" glyph-name="Oacute" horiz-adv-x="1521" unicode="Ó"/><glyph d="M1511 733q0 -311 -220 -530t-530 -219t-530.5 219t-220.5 530t220.5 530.5t530.5 219.5t530 -219.5t220 -530.5zM958 733q0 82 -57 140.5t-140 58.5t-140.5 -58.5t-57.5 -140.5t57.5 -140t140.5 -58t140 58t57 140zM1204 1509h-395l-43 246l-45 -246h-393l133 469h610z " glyph-name="Ocircumflex" horiz-adv-x="1521" unicode="Ô"/><glyph d="M1511 733q0 -311 -220 -530t-530 -219t-530.5 219t-220.5 530t220.5 530.5t530.5 219.5t530 -219.5t220 -530.5zM958 733q0 82 -57 140.5t-140 58.5t-140.5 -58.5t-57.5 -140.5t57.5 -140t140.5 -58t140 58t57 140zM1307 1880q0 -170 -79 -278.5t-241 -108.5 q-82 0 -214 42t-177 42q-68 0 -84 -84h-299q0 170 79 278.5t240 108.5q82 0 214.5 -42t177.5 -42q68 0 84 84h299z" glyph-name="Otilde" horiz-adv-x="1521" unicode="Õ"/><glyph d="M1511 733q0 -311 -220 -530t-530 -219t-530.5 219t-220.5 530t220.5 530.5t530.5 219.5t530 -219.5t220 -530.5zM958 733q0 82 -57 140.5t-140 58.5t-140.5 -58.5t-57.5 -140.5t57.5 -140t140.5 -58t140 58t57 140zM1182 1509h-398v469h398v-469zM739 1509h-399v469h399 v-469z" glyph-name="Odieresis" horiz-adv-x="1521" unicode="Ö"/><glyph d="M23 379l352 354l-352 352l311 314l354 -355l352 355l314 -314l-355 -352l355 -354l-314 -311l-352 352l-354 -352z" glyph-name="multiply" horiz-adv-x="1376" unicode="×"/><glyph d="M1524 728q0 -306 -219.5 -525t-524.5 -219t-520 202l-188 -186h-62l219 219q-205 215 -205 520t219.5 524.5t523.5 219.5t523 -203l187 186h61l-217 -219q203 -213 203 -519zM973 733q0 82 -58.5 140.5t-140.5 58.5t-140.5 -58.5t-58.5 -140.5t58.5 -140t140.5 -58 t140.5 58t58.5 140z" glyph-name="Oslash" horiz-adv-x="1548" unicode="Ø"/><glyph d="M958 997v469h684v-469h-243v-540q0 -238 -162 -356.5t-405.5 -118.5t-405.5 118.5t-162 356.5v540h-241v469h890v-942q0 -27 19.5 -46t47.5 -19t47.5 19.5t19.5 45.5v473h-89zM401 1976h672l62 -469h-496z" glyph-name="Ugrave" horiz-adv-x="1665" unicode="Ù"/><glyph d="M958 997v469h684v-469h-243v-540q0 -238 -162 -356.5t-405.5 -118.5t-405.5 118.5t-162 356.5v540h-241v469h890v-942q0 -27 19.5 -46t47.5 -19t47.5 19.5t19.5 45.5v473h-89zM647 1978h672l-238 -469h-495z" glyph-name="Uacute" horiz-adv-x="1665" unicode="Ú"/><glyph d="M958 997v469h684v-469h-243v-540q0 -238 -162 -356.5t-405.5 -118.5t-405.5 118.5t-162 356.5v540h-241v469h890v-942q0 -27 19.5 -46t47.5 -19t47.5 19.5t19.5 45.5v473h-89zM1270 1509h-396l-43 246l-45 -246h-393l133 469h611z" glyph-name="Ucircumflex" horiz-adv-x="1665" unicode="Û"/><glyph d="M958 997v469h684v-469h-243v-540q0 -238 -162 -356.5t-405.5 -118.5t-405.5 118.5t-162 356.5v540h-241v469h890v-942q0 -27 19.5 -46t47.5 -19t47.5 19.5t19.5 45.5v473h-89zM1253 1507h-397v469h397v-469zM811 1507h-399v469h399v-469z" glyph-name="Udieresis" horiz-adv-x="1665" unicode="Ü"/><glyph d="M1505 997h-243l-205 -397v-131h243v-469h-1062v469h241v131l-215 397h-241v469h831l45 -577l43 577h563v-469zM547 1976h672l-238 -469h-496z" glyph-name="Yacute" horiz-adv-x="1527" unicode="Ý"/><glyph d="M1454 732q0 -198 -139 -337t-338 -139h-178v-256h-799v469h221v528h-221v469h799v-256h178q199 0 338 -140t139 -338zM913 733q0 47 -33.5 81t-80.5 34v-230q47 0 80.5 34t33.5 81z" glyph-name="Thorn" horiz-adv-x="1484" unicode="Þ"/><glyph d="M1524 431q0 -171 -130 -301t-313 -130h-305v469h47q18 0 31.5 13.5t13.5 41.5t-22.5 53t-46 73t-23.5 145v430q0 25 -20 24q-23 0 -23 -24v-1225h-710v469h133v602q0 170 120.5 291t289.5 121t290 -110.5t121 -268.5q0 -84 53 -147.5t133 -79.5q156 -29 258.5 -152 t102.5 -294z" glyph-name="germandbls" horiz-adv-x="1546" unicode="ß"/><glyph d="M1477 0h-469v133q-147 -152 -365 -151q-262 0 -447.5 186t-185.5 448.5t185.5 447.5t447.5 185q219 0 365 -149v133h469v-469h-134v-295h134v-469zM811 615q0 54 -39 93.5t-94 39.5t-94 -39t-39 -93t39 -93.5t94 -39.5t94 39t39 93zM276 1745h672l62 -469h-496z" glyph-name="agrave" horiz-adv-x="1499" unicode="à"/><glyph d="M1477 0h-469v133q-147 -152 -365 -151q-262 0 -447.5 186t-185.5 448.5t185.5 447.5t447.5 185q219 0 365 -149v133h469v-469h-134v-295h134v-469zM811 615q0 54 -39 93.5t-94 39.5t-94 -39t-39 -93t39 -93.5t94 -39.5t94 39t39 93zM477 1745h672l-238 -469h-495z" glyph-name="aacute" horiz-adv-x="1499" unicode="á"/><glyph d="M1477 0h-469v133q-147 -152 -365 -151q-262 0 -447.5 186t-185.5 448.5t185.5 447.5t447.5 185q219 0 365 -149v133h469v-469h-134v-295h134v-469zM811 615q0 54 -39 93.5t-94 39.5t-94 -39t-39 -93t39 -93.5t94 -39.5t94 39t39 93zM1223 1274h-396l-43 246l-45 -246 h-393l133 469h611z" glyph-name="acircumflex" horiz-adv-x="1499" unicode="â"/><glyph d="M1477 0h-469v133q-147 -152 -365 -151q-262 0 -447.5 186t-185.5 448.5t185.5 447.5t447.5 185q219 0 365 -149v133h469v-469h-134v-295h134v-469zM811 615q0 54 -39 93.5t-94 39.5t-94 -39t-39 -93t39 -93.5t94 -39.5t94 39t39 93zM1296 1661q0 -170 -78.5 -278.5 t-240.5 -108.5q-82 0 -214 42t-177 42q-68 0 -84 -84h-299q0 170 78.5 278.5t240.5 108.5q82 0 214 -42t177 -42q68 0 84 84h299z" glyph-name="atilde" horiz-adv-x="1499" unicode="ã"/><glyph d="M1477 0h-469v133q-147 -152 -365 -151q-262 0 -447.5 186t-185.5 448.5t185.5 447.5t447.5 185q219 0 365 -149v133h469v-469h-134v-295h134v-469zM811 615q0 54 -39 93.5t-94 39.5t-94 -39t-39 -93t39 -93.5t94 -39.5t94 39t39 93zM1171 1274h-397v469h397v-469z M729 1274h-399v469h399v-469z" glyph-name="adieresis" horiz-adv-x="1499" unicode="ä"/><glyph d="M1477 0h-469v133q-147 -152 -365 -151q-262 0 -447.5 186t-185.5 448.5t185.5 447.5t447.5 185q219 0 365 -149v133h469v-469h-134v-295h134v-469zM811 615q0 54 -39 93.5t-94 39.5t-94 -39t-39 -93t39 -93.5t94 -39.5t94 39t39 93zM985 1512q0 -97 -68.5 -165.5 t-165.5 -68.5t-166 68.5t-69 165.5t68 166t166 69t166.5 -69t68.5 -166zM793 1512q0 17 -12.5 29.5t-29.5 12.5t-29.5 -12t-12.5 -30t11.5 -30t29.5 -12t30.5 12.5t12.5 29.5z" glyph-name="aring" horiz-adv-x="1499" unicode="å"/><glyph d="M640 -18q-259 0 -444.5 186t-185.5 448.5t185.5 447.5t447.5 185q213 0 342 -149v133h291q0 -569 2 -594h-504q-8 47 -45 78t-88 31t-90 -39t-39 -93t39 -93.5t90 -39.5t88 32t45 79h504q-10 -256 -194.5 -434t-443.5 -178zM416 -530v467h469v-467l-205 -234h-59l204 234 h-409z" glyph-name="ccedilla" horiz-adv-x="1300" unicode="ç"/><glyph d="M1278 616q0 -47 -10 -104h-713q0 -37 25.5 -62.5t69.5 -25.5t69 45h541q-49 -211 -222.5 -349t-394.5 -138q-262 0 -447.5 186t-185.5 448.5t185.5 447.5t447.5 185t448.5 -185.5t186.5 -447.5zM733 745q0 37 -25.5 63t-63.5 26t-63.5 -26t-25.5 -63h178zM174 1745h672 l61 -467h-495z" glyph-name="egrave" unicode="è"/><glyph d="M1278 616q0 -47 -10 -104h-713q0 -37 25.5 -62.5t69.5 -25.5t69 45h541q-49 -211 -222.5 -349t-394.5 -138q-262 0 -447.5 186t-185.5 448.5t185.5 447.5t447.5 185t448.5 -185.5t186.5 -447.5zM745 735q0 41 -29.5 71t-71.5 30t-71.5 -30t-29.5 -71h202zM465 1743h672 l-238 -469h-496z" glyph-name="eacute" unicode="é"/><glyph d="M1278 616q0 -47 -10 -104h-713q0 -37 25.5 -62.5t69.5 -25.5t69 45h541q-49 -211 -222.5 -349t-394.5 -138q-262 0 -447.5 186t-185.5 448.5t185.5 447.5t447.5 185t448.5 -185.5t186.5 -447.5zM745 735q0 41 -29.5 71t-71.5 30t-71.5 -30t-29.5 -71h202zM1081 1274h-395 l-43 246l-45 -246h-393l133 469h610z" glyph-name="ecircumflex" unicode="ê"/><glyph d="M1278 616q0 -47 -10 -104h-713q0 -37 25.5 -62.5t69.5 -25.5t69 45h541q-49 -211 -222.5 -349t-394.5 -138q-262 0 -447.5 186t-185.5 448.5t185.5 447.5t447.5 185t448.5 -185.5t186.5 -447.5zM745 735q0 41 -29.5 71t-71.5 30t-71.5 -30t-29.5 -71h202zM1065 1276h-397 v469h397v-469zM623 1276h-400v469h400v-469z" glyph-name="edieresis" unicode="ë"/><glyph d="M23 0v467h133v487h577v-487h133v-467h-843zM2 1464h672l61 -467h-495z" glyph-name="igrave" horiz-adv-x="888" unicode="ì"/><glyph d="M23 0v467h133v487h577v-487h131v-467h-841zM217 1464h672l-238 -469h-495z" glyph-name="iacute" horiz-adv-x="888" unicode="í"/><glyph d="M23 0v467h133v487h577v-487h131v-467h-841zM883 995h-396l-43 246l-45 -246h-393l133 469h611z" glyph-name="icircumflex" horiz-adv-x="888" unicode="î"/><glyph d="M23 0v467h133v487h577v-487h131v-467h-841zM866 997h-397v469h397v-469zM424 997h-399v469h399v-469z" glyph-name="idieresis" horiz-adv-x="888" unicode="ï"/><glyph d="M1278 616q0 -262 -186.5 -448t-448.5 -186t-447.5 186t-185.5 448q0 225 144.5 366.5t375.5 172.5l-43 74l-262 -78v45l242 74l-111 196h533l35 -59l254 76v-45l-232 -70l246 -434q86 -152 86 -318zM776 615q0 54 -39 93.5t-93 39.5t-93 -39t-39 -93t39 -93.5t93 -39.5 t93 39t39 93z" glyph-name="eth" unicode="ð"/><glyph d="M1559 0h-695v715q0 29 -19.5 48t-46 19t-46 -19.5t-19.5 -47.5v-246h88v-469h-798v469h133v295h-133v469h710v-133q127 150 295 150t282.5 -116t114.5 -280v-385h134v-469zM1337 1663q0 -170 -78.5 -278.5t-240.5 -108.5q-82 0 -214 42t-177 42q-68 0 -84 -84h-299 q0 170 78.5 278.5t240.5 108.5q82 0 214 -42t177 -42q68 0 84 84h299z" glyph-name="ntilde" horiz-adv-x="1581" unicode="ñ"/><glyph d="M1278 616.5q0 -262.5 -186.5 -448.5t-448.5 -186t-447.5 186t-185.5 448.5t185.5 447.5t447.5 185t448.5 -185t186.5 -447.5zM776 615q0 54 -39 93.5t-93 39.5t-93 -39t-39 -93t39 -93.5t93 -39.5t93 39t39 93zM160 1743h671l62 -467h-496z" glyph-name="ograve" unicode="ò"/><glyph d="M1278 616.5q0 -262.5 -186.5 -448.5t-448.5 -186t-447.5 186t-185.5 448.5t185.5 447.5t447.5 185t448.5 -185t186.5 -447.5zM776 615q0 54 -39 93.5t-93 39.5t-93 -39t-39 -93t39 -93.5t93 -39.5t93 39t39 93zM446 1743h672l-237 -469h-496z" glyph-name="oacute" unicode="ó"/><glyph d="M1278 616.5q0 -262.5 -186.5 -448.5t-448.5 -186t-447.5 186t-185.5 448.5t185.5 447.5t447.5 185t448.5 -185t186.5 -447.5zM776 615q0 54 -39 93.5t-93 39.5t-93 -39t-39 -93t39 -93.5t93 -39.5t93 39t39 93zM1081 1274h-395l-43 246l-45 -246h-393l133 469h610z" glyph-name="ocircumflex" unicode="ô"/><glyph d="M1278 616.5q0 -262.5 -186.5 -448.5t-448.5 -186t-447.5 186t-185.5 448.5t185.5 447.5t447.5 185t448.5 -185t186.5 -447.5zM776 615q0 54 -39 93.5t-93 39.5t-93 -39t-39 -93t39 -93.5t93 -39.5t93 39t39 93zM1190 1663q0 -170 -79 -278.5t-241 -108.5q-82 0 -214 42 t-177 42q-68 0 -84 -84h-299q0 170 79 278.5t241 108.5q82 0 214 -42t177 -42q68 0 84 84h299z" glyph-name="otilde" unicode="õ"/><glyph d="M1278 616.5q0 -262.5 -186.5 -448.5t-448.5 -186t-447.5 186t-185.5 448.5t185.5 447.5t447.5 185t448.5 -185t186.5 -447.5zM776 615q0 54 -39 93.5t-93 39.5t-93 -39t-39 -93t39 -93.5t93 -39.5t93 39t39 93zM1065 1276h-397v469h397v-469zM623 1276h-400v469h400v-469 z" glyph-name="odieresis" unicode="ö"/><glyph d="M860 999h-397v398h397v-398zM23 956h1277v-442h-1277v442zM860 74h-397v397h397v-397z" glyph-name="divide" horiz-adv-x="1323" unicode="÷"/><glyph d="M1290 610q0 -256 -185 -442t-441 -186t-439 172l-153 -154h-62l185 184q-170 180 -170 437t185 442.5t440 185.5t440 -170l153 154h62l-185 -184q170 -183 170 -439zM791 615q0 54 -39 93.5t-94.5 39.5t-94.5 -39t-39 -93t39 -93.5t94.5 -39.5t94.5 39t39 93z" glyph-name="oslash" horiz-adv-x="1314" unicode="ø"/><glyph d="M1559 0h-711v133q-127 -149 -295 -149t-282.5 114.5t-114.5 278.5v387h-133v469h692v-717q0 -27 19.5 -46t48 -19t47 18t18.5 47v248h-88v469h799v-469h-134v-295h134v-469zM260 1741h672l61 -469h-495z" glyph-name="ugrave" horiz-adv-x="1581" unicode="ù"/><glyph d="M1559 0h-711v133q-127 -149 -295 -149t-282.5 114.5t-114.5 278.5v387h-133v469h692v-717q0 -27 19.5 -46t48 -19t47 18t18.5 47v248h-88v469h799v-469h-134v-295h134v-469zM541 1745h671l-237 -469h-496z" glyph-name="uacute" horiz-adv-x="1581" unicode="ú"/><glyph d="M1559 0h-711v133q-127 -149 -295 -149t-282.5 114.5t-114.5 278.5v387h-133v469h692v-717q0 -27 19.5 -46t48 -19t47 18t18.5 47v248h-88v469h799v-469h-134v-295h134v-469zM1262 1268h-396l-43 245l-45 -245h-393l133 469h610z" glyph-name="ucircumflex" horiz-adv-x="1581" unicode="û"/><glyph d="M1559 0h-711v133q-127 -149 -295 -149t-282.5 114.5t-114.5 278.5v387h-133v469h692v-717q0 -27 19.5 -46t48 -19t47 18t18.5 47v248h-88v469h799v-469h-134v-295h134v-469zM1157 1276h-397v469h397v-469zM715 1276h-400v469h400v-469z" glyph-name="udieresis" horiz-adv-x="1581" unicode="ü"/><glyph d="M1194 764h-133l-70 -584q-23 -178 -154.5 -295.5t-310.5 -117.5h-503v469h286l-153 528h-133v469h675l45 -617l43 617h408v-469zM436 1741h672l-238 -469h-495z" glyph-name="yacute" horiz-adv-x="1216" unicode="ý"/><glyph d="M1489 616.5q0 -262.5 -186.5 -448.5t-448.5 -186q-115 0 -209 41v-256h-622v466h133v764h-133v469h622l-2 -258q98 41 211 41q262 0 448.5 -185t186.5 -447.5zM954 615q0 54 -38.5 93.5t-94 39.5t-94.5 -39t-39 -93t39 -93.5t94.5 -39.5t94 39t38.5 93z" glyph-name="thorn" horiz-adv-x="1499" unicode="þ"/><glyph d="M1194 764h-133l-70 -584q-23 -178 -154.5 -295.5t-310.5 -117.5h-503v469h286l-153 528h-133v469h675l45 -617l43 617h408v-469zM1030 1278h-397v469h397v-469zM588 1278h-400v469h400v-469z" glyph-name="ydieresis" horiz-adv-x="1216" unicode="ÿ"/><glyph d="M23 0v467h133v487h577v-487h131v-467h-841z" glyph-name="dotlessi" horiz-adv-x="886" unicode="ı"/><glyph d="M1262 0h-1239v469h221v264l-221 -35v45l221 35v219h-221v469h1017v-469h-219v-127l441 72v-45l-441 -72v-356h43v264h398v-733z" glyph-name="Lslash" horiz-adv-x="1284" unicode="Ł"/><glyph d="M23 0v469h133v250l-133 -21v45l133 21v233h-133v469h710v-610l131 23v-45l-131 -23v-342h131v-469h-841z" glyph-name="lslash" horiz-adv-x="886" unicode="ł"/><glyph d="M729 1466h492v-583h-492v41q-2 16 -16.5 29.5t-32.5 13.5t-32.5 -14.5t-14.5 -32.5q0 -41 39 -48l200 -38q156 -31 252.5 -148.5t96.5 -283.5t-125 -292t-291 -126t-266 149v-133h-516v582h516v-35q0 -18 12.5 -32.5t32.5 -14.5t33.5 14t13.5 33q0 39 -37 47l-225 43 q-156 29 -251 145.5t-95 283.5t125.5 293t311.5 126t269 -152v133zM1059 1985l-133 -469h-611l-133 469h393l46 -246l43 246h395z" glyph-name="Scaron" horiz-adv-x="1243" unicode="Š"/><glyph d="M498 469q0 -51 30.5 -51t43 13t12.5 36t-31 38t-81 21t-109.5 13.5t-119 29t-109.5 57.5t-80.5 108.5t-30.5 172.5q0 141 100 241.5t242 100.5q180 0 282 -149v133h479v-508h-452v39q0 47 -43 47q-16 0 -29.5 -12.5t-13.5 -38.5t40 -43t99 -22t130 -24.5t130.5 -51 t99 -107t39.5 -202.5t-99 -227.5t-241 -100.5q-86 0 -160.5 40.5t-121.5 110.5v-133h-481v502h475v-33zM1012 1743l-133 -469h-611l-133 469h393l45 -246l43 246h396z" glyph-name="scaron" horiz-adv-x="1148" unicode="š"/><glyph d="M1505 997h-243l-205 -397v-131h243v-469h-1062v469h241v131l-215 397h-241v469h831l45 -577l43 577h563v-469zM1186 1507h-398v469h398v-469zM743 1507h-399v469h399v-469z" glyph-name="Ydieresis" horiz-adv-x="1527" unicode="Ÿ"/><glyph d="M1221 0h-1198v600l555 397h-191v-116h-364v585h1198v-604l-555 -393h190v117h365v-586zM1059 1978l-133 -469h-611l-133 469h393l46 -245l43 245h395z" glyph-name="Zcaron" horiz-adv-x="1243" unicode="Ž"/><glyph d="M340 897v-133h-317v469h1103v-531l-530 -366h213v133h317v-469h-1103v528l528 369h-211zM1012 1741l-133 -469h-611l-133 469h393l45 -246l43 246h396z" glyph-name="zcaron" horiz-adv-x="1148" unicode="ž"/><glyph d="M244 -233h-242l82 466h133l49 279h-133l78 440h133l8 45q35 195 196 332t353 137h244l-84 -469h-131l-8 -45h131l-78 -440h-131l-49 -279q-33 -193 -195 -329.5t-356 -136.5z" glyph-name="florin" horiz-adv-x="1146" unicode="ƒ"/><glyph d="M1020 1102h-395l-43 246l-45 -246h-394l133 469h611z" glyph-name="circumflex" horiz-adv-x="1042" unicode="ˆ"/><glyph d="M1020 1571l-133 -469h-611l-133 469h394l45 -246l43 246h395z" glyph-name="caron" horiz-adv-x="1167" unicode="ˇ"/><glyph d="M506 1536q0 -100 -70.5 -171t-171 -71t-171 71t-70.5 171h153q0 -37 26.5 -62.5t61.5 -25.5t61.5 25.5t26.5 62.5h154z" glyph-name="breve" horiz-adv-x="528" unicode="˘"/><glyph d="M342 1370q47 0 81 -33.5t34 -81t-34 -81t-81 -33.5t-81 33.5t-34 81t34 81t81 33.5z" glyph-name="dotaccent" horiz-adv-x="681" unicode="˙"/><glyph d="M500 1529q0 -97 -69 -166t-166 -69t-165.5 69t-68.5 166t68.5 165.5t165.5 68.5t166 -68.5t69 -165.5zM307 1529q0 17 -11.5 29.5t-29.5 12.5t-30.5 -12.5t-12.5 -29.5t12.5 -29.5t29.5 -12.5t29.5 12.5t12.5 29.5z" glyph-name="ring" horiz-adv-x="530" unicode="˚"/><glyph d="M483 -63h469v-467h-409l205 -234h-60l-205 234v467z" glyph-name="ogonek" horiz-adv-x="1538" unicode="˛"/><glyph d="M1116 1661q0 -170 -79 -278.5t-240 -108.5q-82 0 -214 42t-177 42q-68 0 -84 -84h-299q0 170 78.5 278.5t240.5 108.5q82 0 214 -42t177 -42q68 0 84 84h299z" glyph-name="tilde" horiz-adv-x="1138" unicode="˜"/><glyph d="M643 997v469h578v-469l-205 -233h-60l205 233h-518zM23 997v469h577v-469l-205 -233h-59l205 233h-518z" glyph-name="hungarumlaut" horiz-adv-x="1243" unicode="˝"/><glyph d="M1348 512h-1325v442h1325v-442z" glyph-name="endash" horiz-adv-x="1370" unicode="–"/><glyph d="M1790 512h-1767v442h1767v-442z" glyph-name="emdash" horiz-adv-x="1812" unicode="—"/><glyph d="M492 997h-469v469l204 234h58l-203 -234h410v-469z" glyph-name="quoteleft" horiz-adv-x="514" unicode="‘"/><glyph d="M23 1466h469v-469l-205 -233h-58l203 233h-409v469z" glyph-name="quoteright" horiz-adv-x="514" unicode="’"/><glyph d="M23 0v467h469v-467l-205 -233h-60l205 233h-409z" glyph-name="quotesinglbase" horiz-adv-x="514" unicode="‚"/><glyph d="M492 997h-469v469l204 234h58l-203 -234h410v-469zM1004 997h-469v469l204 234h58l-203 -234h410v-469z" glyph-name="quotedblleft" horiz-adv-x="1026" unicode="“"/><glyph d="M535 1466h469v-469l-205 -233h-58l203 233h-409v469zM23 1466h469v-469l-205 -233h-58l203 233h-409v469z" glyph-name="quotedblright" horiz-adv-x="1026" unicode="”"/><glyph d="M535 469h469v-469l-205 -233h-58l203 233h-409v469zM23 469h469v-469l-205 -233h-58l203 233h-409v469z" glyph-name="quotedblbase" horiz-adv-x="1026" unicode="„"/><glyph d="M244 764h-221v469h221v233h577v-233h219v-469h-219v-997h-577v997z" glyph-name="dagger" horiz-adv-x="1062" unicode="†"/><glyph d="M1040 0h-219v-233h-577v233h-221v469h221v295h-221v469h221v233h577v-233h219v-469h-219v-295h219v-469z" glyph-name="daggerdbl" horiz-adv-x="1062" unicode="‡"/><glyph d="M23 954h442v-442h-442v442z" glyph-name="bullet" horiz-adv-x="487" unicode="•"/><glyph d="M532 0v467h467v-467h-467zM1509 0h-467v467h467v-467zM489 0h-466v467h466v-467z" glyph-name="ellipsis" horiz-adv-x="1531" unicode="…"/><glyph d="M1718 213q0 -113 -78.5 -172t-195.5 -59t-197 59t-80 172v289q0 117 82 174t198 57t193.5 -62.5t77.5 -168.5v-289zM573 963q0 -113 -78.5 -171.5t-197.5 -58.5t-196.5 58.5t-77.5 171.5v290q0 115 81.5 172.5t197.5 57.5t193.5 -61.5t77.5 -168.5v-290zM1124 1466 l-1048 -1466h-53l1046 1466h55zM1124 213q0 -113 -79.5 -172t-196.5 -59t-196 59t-79 172v289q0 117 82 174t198 57t193.5 -62.5t77.5 -168.5v-289zM1466 190v334q0 23 -22.5 23t-22.5 -23v-334q0 -20 22.5 -20t22.5 20zM319 942v332q0 23 -22 22q-20 0 -21 -22v-332 q0 -23 21 -22q22 -1 22 22zM870 190v334q0 23 -21 23t-22 -23v-334q-1 -20 21 -20t22 20z" glyph-name="perthousand" horiz-adv-x="1740" unicode="‰"/><glyph d="M559 106h-401l-135 510l135 514h401l-135 -514z" glyph-name="guilsinglleft" horiz-adv-x="581" unicode="‹"/><glyph d="M559 616l-135 -510h-401l135 510l-135 514h401z" glyph-name="guilsinglright" horiz-adv-x="581" unicode="›"/><glyph d="M23 0l284 1466h316l-285 -1466h-315z" glyph-name="fraction" horiz-adv-x="645" unicode="⁄"/><glyph d="M23 799h223q25 283 234.5 475t494.5 192v-469q-92 0 -163 -56t-93 -142h256v-43h-264v-45h264v-43h-256q23 -86 93.5 -142.5t162.5 -56.5v-469q-285 0 -495 192.5t-234 475.5h-223v43h221v45h-221v43z" glyph-name="Euro" horiz-adv-x="997" unicode="€"/><glyph d="M1153 997h-131v45h43v326l-188 -371h-52l-188 371v-326h41v-45h-133v45h45v379h-45v45h94l211 -417l213 417h90v-45h-41v-379h41v-45zM492 1378h-46v43h-167v-379h45v-45h-134v45h43v379h-165v-43h-45v88h469v-88z" glyph-name="trademark" horiz-adv-x="1175" unicode="™"/><glyph d="M1348 512h-1325v442h1325v-442z" glyph-name="minus" horiz-adv-x="1370" unicode="−"/><glyph d="M1348 268h-1033l-231 -268h-61l231 268h-231v443h612l39 45h-651v442h1032l231 268h62l-232 -268h232v-442h-613l-39 -45h652v-443z" glyph-name="notequal" horiz-adv-x="1370" unicode="≠"/><glyph d="M156 1466h577v-469h-577v469zM864 0h-841v469h133v45h-133v440h710v-485h131v-469z" glyph-name="uniF803" horiz-adv-x="886" unicode=""/><glyph d="M156 1466h577v-469h-577v469zM156 233v281h-133v440h710v-721q0 -193 -137 -329.5t-332 -136.5h-241v466h133z" glyph-name="uniF804" horiz-adv-x="755" unicode=""/><glyph d="M23 1466h469v-469l-205 -233h-58l203 233h-409v469z" glyph-name="glyph240" horiz-adv-x="514"/><glyph d="M23 0v467h469v-467l-205 -233h-60l205 233h-409z" glyph-name="glyph241" horiz-adv-x="514"/><glyph d="M1804 698l1 -45q1 -45 1 -73l68 -103l-100 -80q-68 90 -111 144q2 164 2 489q109 76 145 96q0 -98 2 -264q18 12 158 107q20 -16 80 -103l-106 -84l170 -254q-72 -53 -127 -100q-41 72 -154 289zM1970 367q17 17 47 57q27 -24 56 -53q-15 -20 -18 -25l-25 -37 q-39 41 -60 58zM1968 371l-43 -62q-29 31 -59 58q8 8 47 57q26 -24 55 -53zM1888 240l162 69q20 -35 59 -100q-123 -82 -129 -84q2 -18 0 -25q10 -4 43 -28.5t35 -28.5l51 47l5 -4v-2q-111 -111 -115 -111q-82 61 -98 70q-12 190 -13 197zM1485 532q61 53 88 80q4 -4 8 -12 q-156 -152 -188 -172q-156 131 -160 133v311q58 26 256 107q8 -20 36.5 -75.5t37.5 -84.5q-98 -49 -119 -57q-39 113 -55 158l-9 -279q31 -23 105 -109zM928 1079l59 76q53 -53 94 -90q-49 -66 -71 -100q-59 59 -82 79q-21 -28 -34 -47.5t-22 -31.5q-76 76 -100 94 q23 23 78 96zM1522 369q-6 -8 -43 -60q-29 31 -60 58q23 23 47 57zM1722 43l7 172q-10 10 -19.5 20.5t-19.5 20.5l75 47q5 -8 50 -53q-4 -63 -5 -189q-37 -18 -129 -69h-4q-18 8 -94 59q-2 92 -2 174q-4 4 -19.5 23.5t-27.5 34.5q53 39 70 49l71 -74l2 -172q6 -4 45 -43z M1315 367q17 17 47 57l55 -55q-33 -41 -43 -60q-29 31 -59 58zM1100 590q62 -83 76 -94q-94 -88 -99 -90q-27 23 -141 133q-109 -88 -123 -103q-49 63 -74 101q0 250 -4 294q18 10 236 148q96 -82 129 -115v-274zM1462 76q19 -28 29 -41q-10 -8 -66 -53l-49 61q0 74 -2 215 q12 7 36 26t46 35l4 -243h2zM575 410q-4 0 -120 129q6 82 2 268t0 268q18 10 125 86q14 -430 14 -553l86 -108q-57 -37 -104 -90h-3zM1311 113q-57 -43 -135 -113l-123 29l32 61q-4 8 -49 76q43 37 129 143q12 -6 97 -41q-37 -61 -45 -71q-35 14 -101 45q0 -2 5.5 -14 t33.5 -81q90 61 92 62q3 0 64 -96zM967 268q-13 -26 -43 -71q-4 0 -103 45q0 -2 5.5 -14t33.5 -81q90 61 94 62q21 -33 62 -96q-57 -43 -135 -113l-123 29l35 63l-2 -2q-11 23 -48 76q8 6 61.5 66.5t65.5 76.5q12 -6 97 -41zM573 367q16 11 48 57q26 -24 55 -53l-43 -62 q-39 41 -60 58zM381 819q-4 -174 -6 -268q-10 -4 -205 -154q-2 1 -70 55t-69 56q-6 80 -1 281.5t-7 281.5l2 2l143 84q0 -16 6 -317q117 86 133 86q4 -3 74 -107zM516 424l55 -53l-43 -62q-29 31 -59 58q8 8 47 57zM672 92l47 -55l-62 -55q-2 2 -84 79q-68 -55 -73 -61 q-23 27 -45 61q0 164 -2 177q17 8 141 90q74 -66 78 -70v-166zM254 238q23 15 61 51l74 -68v-158l29 -49q-29 -14 -70 -39q-33 37 -49 66l-4 145q-10 6 -23.5 22.5t-19.5 20.5v-166l24 -49q-20 -12 -55 -39l-59 91q0 41 -2 124l-41 46q4 -166 0 -177q2 0 26 -39 q-20 -10 -57 -47q-6 10 -22.5 31t-22.5 31q-10 182 -10 235q27 23 80 64q6 0 6 -88l69 65q2 0 66 -73zM1913 786q-16 16 -62 84q-6 -6 -19 -14t-20 -14q-4 -35 -6 -125zM2032 170q-8 12 -54 98q-6 -55 2 -131q4 2 25 17.5t27 15.5zM944 563l-2 246q-13 10 -37 45t-31 41 q6 -82 9 -381zM1237 61l-61 91q-51 -35 -72 -52q31 0 81 -19.5t52 -19.5zM942 61q0 4 -61 91q-16 -12 -40.5 -28.5t-31.5 -23.5q16 0 133 -39zM240 510v291q-4 8 -29 49l-39 -29q-6 -211 -4 -233l29 -31q29 -31 43 -47zM578 78v147q-10 10 -41 51q4 -37 4 -229q31 25 37 31z " glyph-name="glyph242" horiz-adv-x="2136"/></font>
</defs>
</svg>
