<svg id="loading-bunny" width="72" height="37" viewBox="0 0 72 37" fill="none" xmlns="http://www.w3.org/2000/svg">
  <path d="M0.690002 28.86V36H5.74V34.68H2.26V28.86H0.690002Z" fill="black"/>
  <path d="M7.87774 32.46C7.87774 32.1467 7.91107 31.8433 7.97774 31.55C8.05107 31.2567 8.1644 30.9967 8.31774 30.77C8.47107 30.5367 8.67107 30.3533 8.91774 30.22C9.1644 30.08 9.4644 30.01 9.81774 30.01C10.1711 30.01 10.4711 30.08 10.7177 30.22C10.9644 30.3533 11.1644 30.5367 11.3177 30.77C11.4711 30.9967 11.5811 31.2567 11.6477 31.55C11.7211 31.8433 11.7577 32.1467 11.7577 32.46C11.7577 32.76 11.7211 33.0533 11.6477 33.34C11.5811 33.62 11.4711 33.8733 11.3177 34.1C11.1644 34.3267 10.9644 34.51 10.7177 34.65C10.4711 34.7833 10.1711 34.85 9.81774 34.85C9.4644 34.85 9.1644 34.7833 8.91774 34.65C8.67107 34.51 8.47107 34.3267 8.31774 34.1C8.1644 33.8733 8.05107 33.62 7.97774 33.34C7.91107 33.0533 7.87774 32.76 7.87774 32.46ZM6.30774 32.46C6.30774 32.98 6.38774 33.4667 6.54774 33.92C6.70774 34.3667 6.93774 34.7567 7.23774 35.09C7.53774 35.4233 7.9044 35.6867 8.33774 35.88C8.77774 36.0667 9.27107 36.16 9.81774 36.16C10.3711 36.16 10.8644 36.0667 11.2977 35.88C11.7311 35.6867 12.0977 35.4233 12.3977 35.09C12.6977 34.7567 12.9277 34.3667 13.0877 33.92C13.2477 33.4667 13.3277 32.98 13.3277 32.46C13.3277 31.9267 13.2477 31.4333 13.0877 30.98C12.9277 30.52 12.6977 30.12 12.3977 29.78C12.0977 29.44 11.7311 29.1733 11.2977 28.98C10.8644 28.7867 10.3711 28.69 9.81774 28.69C9.27107 28.69 8.77774 28.7867 8.33774 28.98C7.9044 29.1733 7.53774 29.44 7.23774 29.78C6.93774 30.12 6.70774 30.52 6.54774 30.98C6.38774 31.4333 6.30774 31.9267 6.30774 32.46Z" fill="black"/>
  <path d="M16.2009 33.24L17.1309 30.62H17.1509L18.0509 33.24H16.2009ZM16.3509 28.86L13.6509 36H15.2309L15.7909 34.41H18.4609L19.0009 36H20.6309L17.9609 28.86H16.3509Z" fill="black"/>
  <path d="M49.26 34.68V30.18H50.38C50.7667 30.18 51.09 30.2367 51.35 30.35C51.6167 30.4567 51.83 30.6133 51.99 30.82C52.15 31.0267 52.2633 31.2767 52.33 31.57C52.4033 31.8567 52.44 32.18 52.44 32.54C52.44 32.9333 52.39 33.2667 52.29 33.54C52.19 33.8133 52.0567 34.0367 51.89 34.21C51.7233 34.3767 51.5333 34.4967 51.32 34.57C51.1067 34.6433 50.8867 34.68 50.66 34.68H49.26ZM47.69 28.86V36H50.77C51.3167 36 51.79 35.91 52.19 35.73C52.5967 35.5433 52.9333 35.29 53.2 34.97C53.4733 34.65 53.6767 34.27 53.81 33.83C53.9433 33.39 54.01 32.91 54.01 32.39C54.01 31.7967 53.9267 31.28 53.76 30.84C53.6 30.4 53.3733 30.0333 53.08 29.74C52.7933 29.4467 52.45 29.2267 52.05 29.08C51.6567 28.9333 51.23 28.86 50.77 28.86H47.69Z" fill="black"/>
  <path d="M55.1021 28.86V36H56.6721V28.86H55.1021Z" fill="black"/>
  <path d="M58.0513 28.86V36H59.5213V31.22H59.5413L62.5113 36H64.0813V28.86H62.6113V33.65H62.5913L59.6113 28.86H58.0513Z" fill="black"/>
  <path d="M70.6234 35.19L70.7834 36H71.7834V32.14H68.7834V33.31H70.3634C70.3168 33.81 70.1501 34.1933 69.8634 34.46C69.5834 34.72 69.1834 34.85 68.6634 34.85C68.3101 34.85 68.0101 34.7833 67.7634 34.65C67.5168 34.51 67.3168 34.3267 67.1634 34.1C67.0101 33.8733 66.8968 33.62 66.8234 33.34C66.7568 33.0533 66.7234 32.76 66.7234 32.46C66.7234 32.1467 66.7568 31.8433 66.8234 31.55C66.8968 31.2567 67.0101 30.9967 67.1634 30.77C67.3168 30.5367 67.5168 30.3533 67.7634 30.22C68.0101 30.08 68.3101 30.01 68.6634 30.01C69.0434 30.01 69.3668 30.11 69.6334 30.31C69.9001 30.51 70.0801 30.81 70.1734 31.21H71.6734C71.6334 30.8033 71.5234 30.4433 71.3434 30.13C71.1634 29.8167 70.9334 29.5533 70.6534 29.34C70.3801 29.1267 70.0701 28.9667 69.7234 28.86C69.3834 28.7467 69.0301 28.69 68.6634 28.69C68.1168 28.69 67.6234 28.7867 67.1834 28.98C66.7501 29.1733 66.3834 29.44 66.0834 29.78C65.7834 30.12 65.5534 30.52 65.3934 30.98C65.2334 31.4333 65.1534 31.9267 65.1534 32.46C65.1534 32.98 65.2334 33.4667 65.3934 33.92C65.5534 34.3667 65.7834 34.7567 66.0834 35.09C66.3834 35.4233 66.7501 35.6867 67.1834 35.88C67.6234 36.0667 68.1168 36.16 68.6634 36.16C69.0101 36.16 69.3534 36.09 69.6934 35.95C70.0334 35.8033 70.3434 35.55 70.6234 35.19Z" fill="black"/>
  <g>
    <path d="M35.3682 33.4349C32.5334 33.9539 29.6906 34.473 26.8558 35L26.6721 34.6327C27.6783 33.5307 28.6844 32.4367 29.7066 31.3187C30.7047 32.1492 31.5831 32.5165 32.3737 32.9557C33.1403 33.3869 34.3381 33.0516 35.3443 33.0516C35.3522 33.1873 35.3602 33.3071 35.3682 33.4349Z" fill="black"/>
    <path d="M29.2594 30.7039C28.0616 32.245 26.3128 31.8058 24.8914 32.3009C24.8515 32.2051 24.8035 32.1013 24.7636 32.0055C25.6819 31.159 26.6082 30.3206 27.5505 29.4581C28.1414 29.8893 28.6445 30.2567 29.2594 30.7039Z" fill="black"/>
    <path d="M42.5551 17.1926C42.1559 19.9156 41.8205 22.4949 41.3972 25.0582C41.0619 27.0465 40.6067 29.0189 40.2473 30.9993C40.1355 31.6382 39.9359 31.9975 39.1933 31.9815C37.6281 31.9416 36.063 31.9176 34.5058 31.9895C33.6354 32.0294 33.3 31.6781 32.9327 30.9195C31.6551 28.2364 30.2576 25.6172 28.9001 22.974C28.7963 22.7744 28.6046 22.6147 28.5248 22.5108C29.491 21.0735 30.3934 19.676 31.3676 18.3265C31.5512 18.071 31.9745 17.8873 32.2939 17.8633C35.1287 17.7036 37.9635 17.5998 40.7983 17.4481C41.3334 17.4321 41.8684 17.2964 42.5551 17.1926Z" fill="black"/>
    <path d="M30.8804 29.8494C30.8325 29.8814 30.7846 29.9213 30.7367 29.9532C29.0598 29.0509 27.3908 28.1565 25.674 27.2382C26.3767 26.2879 27.0634 25.3696 27.8939 24.2516C28.916 26.1761 29.8982 28.0128 30.8804 29.8494Z" fill="black"/>
    <path d="M25.9534 24.7547C25.65 25.2977 25.3865 25.7609 25.123 26.232C25.0351 26.1921 24.9473 26.1522 24.8514 26.1043C24.7397 25.6172 24.6358 25.1221 24.4761 24.4193C25.0431 24.5391 25.4663 24.6349 25.9534 24.7547Z" fill="black"/>
    <path d="M30.7607 17.3682C29.3552 19.4125 28.0536 21.337 26.7201 23.2295C26.5763 23.4292 26.193 23.5809 25.9375 23.5649C25.1948 23.517 24.4442 23.4132 23.7096 23.2535C22.4399 22.974 21.1862 22.6466 19.9245 22.3192C19.2617 22.1435 18.7107 21.9599 18.6708 21.0176C18.6388 20.1711 18.2316 19.3406 18 18.5341C20.4675 17.0888 22.8392 15.7073 25.3386 14.246C26.9516 15.1643 28.7883 16.2263 30.7607 17.3682Z" fill="black"/>
    <path d="M31.2957 1.43736C31.2318 6.2286 31.136 11.0119 31.0481 15.8031C30.9443 15.8909 30.8405 15.9708 30.7447 16.0586C28.908 14.4536 27.0794 12.8485 25.2906 11.2754C27.1992 7.4344 29.0438 3.72917 30.8884 0.0239459C30.9523 0.0239459 31.0162 0.0239461 31.0801 0.0159607C31.1519 0.495085 31.3037 0.966223 31.2957 1.43736Z" fill="black"/>
    <path d="M25.3066 8.71207C24.6918 9.59046 24.1488 10.5088 23.454 11.6108C24.013 11.9941 24.58 12.3774 25.099 12.7287C24.4841 13.5832 24.0769 13.4155 23.6137 12.9603C22.7673 12.1218 21.8729 11.3393 21.0504 10.4848C20.8827 10.3171 20.8588 9.91786 20.9067 9.65435C21.4098 6.53205 21.9368 3.41775 22.5038 0C22.8232 0.646817 23.0468 1.04609 23.2145 1.46133C23.9811 3.32991 24.7317 5.21446 25.5063 7.07506C25.7618 7.68195 25.682 8.17705 25.3066 8.71207Z" fill="black"/>
  </g>
</svg>
