<svg width="56" height="56" viewBox="0 0 56 56" fill="none" xmlns="http://www.w3.org/2000/svg">
<path d="M33.3682 44.4349C30.5334 44.9539 27.6906 45.473 24.8558 46L24.6721 45.6327C25.6783 44.5307 26.6845 43.4367 27.7066 42.3187C28.7048 43.1492 29.5832 43.5165 30.3737 43.9557C31.1403 44.387 32.3381 44.0516 33.3443 44.0516C33.3523 44.1873 33.3602 44.3071 33.3682 44.4349Z" fill="black"/>
<path d="M27.2594 41.7039C26.0616 43.245 24.3128 42.8058 22.8914 43.3009C22.8515 43.2051 22.8036 43.1013 22.7636 43.0055C23.6819 42.159 24.6083 41.3206 25.5505 40.4581C26.1414 40.8893 26.6445 41.2567 27.2594 41.7039Z" fill="black"/>
<path d="M40.5551 28.1926C40.1558 30.9156 39.8204 33.4949 39.3972 36.0582C39.0618 38.0465 38.6067 40.0189 38.2473 41.9993C38.1355 42.6381 37.9359 42.9975 37.1932 42.9815C35.6281 42.9416 34.063 42.9176 32.5058 42.9895C31.6354 43.0294 31.3 42.6781 30.9327 41.9195C29.655 39.2364 28.2576 36.6172 26.9001 33.974C26.7963 33.7744 26.6046 33.6146 26.5248 33.5108C27.491 32.0735 28.3933 30.676 29.3676 29.3265C29.5512 29.071 29.9745 28.8873 30.2939 28.8633C33.1287 28.7036 35.9635 28.5998 38.7983 28.4481C39.3333 28.4321 39.8684 28.2964 40.5551 28.1926Z" fill="black"/>
<path d="M28.8804 40.8494C28.8325 40.8814 28.7846 40.9213 28.7367 40.9532C27.0598 40.0509 25.3908 39.1565 23.674 38.2382C24.3767 37.2879 25.0634 36.3696 25.8939 35.2517C26.916 37.1761 27.8982 39.0128 28.8804 40.8494Z" fill="black"/>
<path d="M23.9535 35.7547C23.65 36.2977 23.3865 36.7609 23.123 37.232C23.0351 37.1921 22.9473 37.1522 22.8515 37.1043C22.7397 36.6172 22.6359 36.1221 22.4762 35.4193C23.0431 35.5391 23.4663 35.635 23.9535 35.7547Z" fill="black"/>
<path d="M28.7607 28.3682C27.3552 30.4125 26.0536 32.337 24.7201 34.2295C24.5763 34.4292 24.193 34.5809 23.9375 34.5649C23.1948 34.517 22.4442 34.4132 21.7096 34.2535C20.4399 33.974 19.1862 33.6466 17.9245 33.3192C17.2617 33.1435 16.7107 32.9598 16.6708 32.0176C16.6388 31.1711 16.2316 30.3406 16 29.5341C18.4675 28.0888 20.8392 26.7073 23.3386 25.246C24.9516 26.1643 26.7883 27.2263 28.7607 28.3682Z" fill="black"/>
<path d="M29.2957 12.4374C29.2318 17.2286 29.136 22.0119 29.0481 26.8031C28.9443 26.8909 28.8405 26.9708 28.7447 27.0586C26.908 25.4536 25.0794 23.8485 23.2907 22.2754C25.1992 18.4344 27.0438 14.7292 28.8884 11.024C28.9523 11.024 29.0162 11.024 29.0801 11.016C29.1519 11.4951 29.3037 11.9662 29.2957 12.4374Z" fill="black"/>
<path d="M23.3066 19.7121C22.6918 20.5905 22.1488 21.5088 21.454 22.6108C22.013 22.9941 22.58 23.3774 23.099 23.7287C22.4841 24.5832 22.0769 24.4155 21.6137 23.9603C20.7673 23.1218 19.8729 22.3393 19.0504 21.4848C18.8827 21.3171 18.8588 20.9179 18.9067 20.6543C19.4098 17.5321 19.9368 14.4178 20.5038 11C20.8232 11.6468 21.0468 12.0461 21.2145 12.4613C21.9811 14.3299 22.7317 16.2145 23.5063 18.0751C23.7618 18.682 23.682 19.177 23.3066 19.7121Z" fill="black"/>
</svg>
