<svg width="20px" height="20px" viewBox="0 0 20 20" version="1.1" xmlns="http://www.w3.org/2000/svg" xmlns:xlink="http://www.w3.org/1999/xlink">
    <path d="M4.10638298,13.8723404 L5.46808511,12.5531915 C5.04255319,11.7588652 4.82978723,10.9078014 4.82978723,10 C4.82978723,8.4964539 5.36170213,7.21276596 6.42553191,6.14893617 C7.4893617,5.08510638 8.77304965,4.55319149 10.2765957,4.55319149 L10.2765957,4.55319149 L10.2765957,7.27659574 L13.893617,3.65957447 L10.2765957,0 L10.2765957,2.72340426 C8.26241135,2.72340426 6.54609929,3.43262411 5.12765957,4.85106383 C3.70921986,6.26950355 3,7.9858156 3,10 C3,11.3900709 3.36879433,12.6808511 4.10638298,13.8723404 L4.10638298,13.8723404 Z M10.2765957,20 L10.2765957,17.2765957 C12.2624113,17.2765957 13.964539,16.5673759 15.3829787,15.1489362 C16.8014184,13.7304965 17.5106383,12.0141844 17.5106383,10 C17.5106383,8.60992908 17.141844,7.31914894 16.4042553,6.12765957 L16.4042553,6.12765957 L15.0851064,7.44680851 C15.5106383,8.26950355 15.7234043,9.12056738 15.7234043,10 C15.7234043,11.5035461 15.1914894,12.787234 14.1276596,13.8510638 C13.0638298,14.9148936 11.7801418,15.4468085 10.2765957,15.4468085 L10.2765957,15.4468085 L10.2765957,12.7234043 L6.61702128,16.3404255 L10.2765957,20 Z" id="" fill="#FFFFFF" fill-rule="nonzero"></path>
</svg>